<svg xmlns="http://www.w3.org/2000/svg" viewBox="0 0 100.838 80.715"><defs><style>.cls-1{fill:#a97b3f}</style></defs><g id="Group_94" data-name="Group 94" transform="translate(-7.998 -29.285)"><g id="Group_89" data-name="Group 89" transform="translate(0 12)"><g id="Group_96" data-name="Group 96" transform="translate(3.707 -28)"><path id="Path_162" data-name="Path 162" class="cls-1" d="M28.428 58.209a7.989 7.989 0 1 0-7.989 7.991 8 8 0 0 0 7.989-7.991z" transform="translate(-1.224 -4.936)"/><path id="Path_163" data-name="Path 163" class="cls-1" d="M4.76 83.412v3.679H34.6v-3.679A11.272 11.272 0 0 0 23.335 72.15h-7.313A11.272 11.272 0 0 0 4.76 83.412z" transform="translate(-.468 -7.091)"/></g><g id="Group_95" data-name="Group 95" transform="translate(-10.293 4)"><path id="Path_173" data-name="Path 173" class="cls-1" d="M28.428 58.209a7.989 7.989 0 1 0-7.989 7.991 8 8 0 0 0 7.989-7.991z" transform="translate(83.776 9.064)"/><path id="Path_172" data-name="Path 172" class="cls-1" d="M4.76 83.412v3.679H34.6v-3.679A11.272 11.272 0 0 0 23.335 72.15h-7.313A11.272 11.272 0 0 0 4.76 83.412z" transform="translate(84.532 6.909)"/></g><path id="Path_164" data-name="Path 164" class="cls-1" d="M16.227 32.454A16.227 16.227 0 1 0 0 16.227a16.226 16.226 0 0 0 16.227 16.227zm-6.99-9.541l.8-1.774a.89.89 0 0 1 .51-.472.864.864 0 0 1 .693.061 9.725 9.725 0 0 0 4.36 1.035c1.782 0 3.076-.731 3.076-1.729 0-.647-.373-1.432-3.145-2.33-3-.944-6.069-2.323-6.069-5.414 0-2.345 1.706-4.181 4.569-4.9l.434-.107V5.338a.871.871 0 0 1 .868-.86h2.056a.866.866 0 0 1 .868.86v1.744l.51.061a10.629 10.629 0 0 1 3.3.914.878.878 0 0 1 .411 1.157l-.83 1.751a.866.866 0 0 1-.784.495.85.85 0 0 1-.358-.084 8.584 8.584 0 0 0-3.815-.822c-1.828 0-2.642.708-2.642 1.409 0 .784.853 1.317 3.51 2.2 2.833.929 5.726 2.323 5.726 5.673 0 1.812-1.256 4.249-4.8 5.14l-.434.114v2.01a.873.873 0 0 1-.868.868H15.1a.868.868 0 0 1-.868-.868v-1.842l-.518-.053A11.271 11.271 0 0 1 9.6 24.01a.848.848 0 0 1-.363-1.097z" transform="translate(45 45.283)"/></g></g></svg>