<svg xmlns="http://www.w3.org/2000/svg" viewBox="0 0 80 80"><path data-name="Path 161" d="M61.9 73.45c.217-.133.433-.283.65-.433.233-.167.467-.333.717-.5.35-.25.7-.5 1.033-.767.117-.083.233-.183.35-.267a43.43 43.43 0 0 0 1.367-1.117l.033-.033a40.967 40.967 0 0 0 7.683-8.833.016.016 0 0 1 .017-.017q1-1.55 1.85-3.2c.017-.05.05-.1.067-.15a41.189 41.189 0 0 0 1.483-3.25c.033-.083.067-.15.1-.233q.65-1.625 1.15-3.3c.033-.1.05-.2.083-.283.317-1.117.6-2.233.817-3.383l.05-.3c.217-1.15.383-2.3.5-3.483 0-.083.017-.167.017-.25.067-1.2.133-2.417.133-3.65A40.083 40.083 0 0 0 40 0 40.083 40.083 0 0 0 0 40c0 1.233.067 2.433.167 3.633 0 .083.017.167.017.25.117 1.183.283 2.333.5 3.483.017.1.033.2.05.317.217 1.15.5 2.267.817 3.383.033.1.05.2.083.3a45.335 45.335 0 0 0 1.133 3.3l.1.25a56.95 56.95 0 0 0 1.5 3.217 1.549 1.549 0 0 1 .083.167 46.439 46.439 0 0 0 1.833 3.183c0 .017.017.017.017.033a40.728 40.728 0 0 0 7.65 8.817c.017.017.05.033.067.067.433.367.883.733 1.333 1.083.133.1.25.2.383.3.333.25.667.5 1 .733.25.183.5.35.75.533l.6.4c.383.25.767.5 1.167.75a.676.676 0 0 0 .15.083 39.944 39.944 0 0 0 41.183 0 .688.688 0 0 0 .183-.117c.384-.232.767-.465 1.134-.715zM7.35 56.667c-.5-.983-.967-2-1.383-3.017-.017-.067-.05-.117-.067-.183-.4-1-.75-2.033-1.067-3.067-.017-.083-.05-.167-.067-.233-.3-1.033-.55-2.067-.75-3.117-.017-.083-.033-.183-.05-.267-.2-1.05-.35-2.117-.467-3.2 0-.067-.017-.15-.017-.217-.033-.583-.05-1.15-.067-1.7l13.283-.05A23.064 23.064 0 0 0 20.2 52.3c.283 1.75.667 3.45 1.083 5.1a40.827 40.827 0 0 0-8.95 6.5 37.322 37.322 0 0 1-4.917-7.183.23.23 0 0 1-.066-.05zM3.65 35.5c.1-.75.183-1.5.317-2.233.083-.433.2-.867.3-1.3.15-.65.3-1.317.483-1.967.133-.45.283-.9.433-1.35.2-.617.4-1.217.633-1.817.183-.45.383-.9.583-1.35.25-.567.5-1.15.783-1.717.217-.45.467-.883.717-1.333.3-.533.6-1.083.933-1.6.267-.433.55-.85.833-1.283.35-.517.7-1.017 1.067-1.5.317-.417.633-.817.967-1.217a5.015 5.015 0 0 1 .6-.733c.033.033.067.05.1.083.7.683 1.433 1.317 2.2 1.95a6.531 6.531 0 0 0 .533.417 36.359 36.359 0 0 0 2.033 1.517c.15.1.3.217.467.333.817.55 1.633 1.067 2.483 1.55.2.117.4.217.6.333.2.1.383.217.583.317-.4 1.583-.75 3.217-1.033 4.883A23.115 23.115 0 0 0 18.5 30.85a.016.016 0 0 1-.017.017 23.77 23.77 0 0 0-.75 2.067c-.017.033-.017.05-.033.083-.217.717-.4 1.433-.55 2.167 0 .017-.017.05-.017.067a22.877 22.877 0 0 0-.4 3.033l-13.317.05c.033-.583.033-1.15.083-1.733.034-.368.101-.734.151-1.101zm13.7-24.3a43.93 43.93 0 0 1 2.517-1.833c.133-.083.25-.167.383-.25a37.46 37.46 0 0 1 2.633-1.55c.15-.083.283-.15.433-.233.9-.467 1.817-.883 2.75-1.267.15-.067.3-.117.45-.183.95-.367 1.9-.717 2.867-1a3.891 3.891 0 0 1 .417-.117 2.273 2.273 0 0 1 .283-.067 30.925 30.925 0 0 0-5.5 8.233 49.425 49.425 0 0 0-2.433 6.35 29.15 29.15 0 0 1-1.967-1.167 3.987 3.987 0 0 1-.35-.217c-.833-.55-1.65-1.15-2.45-1.767-.167-.133-.317-.25-.483-.383-.75-.65-1.5-1.3-2.233-2l-.1-.1.05-.05a35.828 35.828 0 0 1 2.417-2.133c.116-.099.216-.183.316-.266zm33.267-6.3c.967.3 1.933.633 2.867 1 .15.067.3.117.45.183.933.383 1.85.817 2.75 1.267.15.067.283.15.433.233.9.483 1.767.983 2.633 1.55.133.083.25.167.383.25.867.567 1.7 1.183 2.517 1.833l.3.25c.833.667 1.65 1.383 2.417 2.133l.05.05-.1.1c-.733.7-1.5 1.367-2.283 2-.15.133-.317.25-.483.383-.8.633-1.617 1.233-2.467 1.783-.1.067-.217.133-.333.2q-.95.6-1.95 1.15a47.71 47.71 0 0 0-2.433-6.333 30.152 30.152 0 0 0-5.5-8.233 2.273 2.273 0 0 0 .283.067c.182.051.332.084.466.134zM69.3 18.033c.367.5.717 1 1.067 1.5.283.417.567.85.85 1.283.333.533.633 1.067.917 1.6.25.433.483.883.717 1.333.283.567.533 1.133.783 1.7.2.45.4.9.583 1.367.233.6.433 1.2.633 1.817.15.45.317.9.433 1.367.183.65.333 1.3.467 1.95.1.433.217.867.3 1.317.133.733.233 1.483.317 2.217.05.367.117.75.15 1.117.05.567.05 1.15.083 1.733H63.2a21.551 21.551 0 0 0-.283-2.35c-.033-.2-.05-.4-.1-.6-.083-.467-.217-.9-.333-1.35-.083-.283-.133-.583-.233-.883-.117-.367-.25-.733-.383-1.1-.133-.35-.25-.717-.383-1.067a20.68 20.68 0 0 0-.417-.883c-.183-.4-.367-.783-.567-1.167-.133-.25-.283-.5-.433-.75-.083-.133-.15-.25-.233-.383a72.02 72.02 0 0 0-1.1-5.217c.167-.1.35-.183.517-.283.2-.1.383-.217.583-.317.85-.5 1.7-1.017 2.517-1.567.15-.1.3-.217.45-.317.7-.483 1.383-1 2.067-1.533.167-.133.35-.267.517-.417.767-.633 1.5-1.283 2.217-1.967.033-.033.067-.05.1-.083l.617.717c.33.4.663.816.98 1.216zm7.183 25.533a33.63 33.63 0 0 1-.467 3.2c-.017.083-.033.183-.05.267-.2 1.05-.467 2.1-.767 3.133-.017.083-.05.15-.067.233a42.253 42.253 0 0 1-1.067 3.083 1.148 1.148 0 0 1-.065.168 41.918 41.918 0 0 1-1.383 3.05c-.017.017-.017.033-.033.05a36.586 36.586 0 0 1-4.917 7.183 40.291 40.291 0 0 0-8.95-6.5c.433-1.75.817-3.533 1.117-5.383A22.987 22.987 0 0 0 63.15 41.7h13.4c-.033.567-.033 1.117-.083 1.683a.221.221 0 0 1 .016.184zM54.4 73.7c-.783.333-1.617.65-2.583.983-.283.1-.55.2-.817.283-.367.117-.733.217-1.083.317.267-.267.533-.567.817-.867a31.65 31.65 0 0 0 4.683-7.35 48.606 48.606 0 0 0 2.417-6.333 36.9 36.9 0 0 1 7.6 5.617 6.317 6.317 0 0 1-.35.333c-.533.5-1.083.983-1.633 1.45-.283.25-.567.5-.867.733-.733.583-1.5 1.117-2.267 1.65-.517.35-1.05.667-1.583.983-.383.233-.783.467-1.167.683a42.41 42.41 0 0 1-1.967.983c-.417.185-.8.368-1.2.535zm-26.25.967a42.892 42.892 0 0 1-2.667-1.017c-.383-.167-.75-.333-1.117-.517-.667-.317-1.3-.633-1.9-.967a43.35 43.35 0 0 1-1.15-.683 32.55 32.55 0 0 1-1.6-1 36.55 36.55 0 0 1-2.3-1.667c-.267-.217-.517-.45-.783-.667q-.875-.725-1.7-1.5c-.117-.117-.233-.217-.333-.333a37.357 37.357 0 0 1 7.6-5.616 50.393 50.393 0 0 0 2.417 6.35 31.475 31.475 0 0 0 4.767 7.433c.25.283.533.533.8.8-.383-.1-.767-.217-1.167-.333a7.524 7.524 0 0 1-.867-.283zm20-2.383a16.414 16.414 0 0 1-1.417 1.433l-.167.15a15.842 15.842 0 0 1-1.35 1.033 1.827 1.827 0 0 0-.267.2 10.868 10.868 0 0 1-1.283.683c-.1.05-.183.1-.35.183a10.454 10.454 0 0 1-1.267.4c-.117.033-.217.067-.383.117L41.617 63.2c.117-.017.233-.017.367-.033.083 0 .167-.017.25-.017h.117a3.018 3.018 0 0 1 .383-.05c.433-.05.85-.1 1.283-.183.15-.033.3-.05.467-.083.15-.033.283-.067.433-.1l1.067-.25c.217-.05.433-.117.65-.183.017 0 .05-.017.067-.017.083-.033.183-.05.267-.083.3-.1.583-.2.883-.3.233-.083.483-.167.717-.267.35-.133.7-.3 1.05-.45.267-.117.55-.25.817-.383.167-.083.317-.167.483-.25s.317-.183.483-.267c.267-.15.533-.3.8-.467a3.659 3.659 0 0 0 .417-.283c.017 0 .017-.017.033-.017.217-.133.417-.283.633-.417.167-.117.35-.233.517-.35.367.15.7.333 1.05.483a45.115 45.115 0 0 1-2.433 6.417 29.521 29.521 0 0 1-4.268 6.633zM27.733 45.767L34.4 39.1a1.65 1.65 0 0 1 1.183-.483h7.35L46.95 34.6h-4.317a1.667 1.667 0 0 1 0-3.333h8.333a1.672 1.672 0 0 1 1.667 1.667v8.333a1.667 1.667 0 1 1-3.333 0V36.95l-4.517 4.517a1.65 1.65 0 0 1-1.183.483h-7.35l-6.183 6.183a1.637 1.637 0 0 1-1.183.483 1.651 1.651 0 0 1-1.15-2.85zM54.15 21.1c-.1.033-.2.083-.3.117-.017-.017-.05-.033-.067-.05-.183-.133-.367-.25-.55-.383-.2-.133-.383-.267-.583-.4l-.45-.3c-.283-.167-.55-.333-.833-.483l-.55-.3c-.083-.05-.183-.083-.267-.133-.383-.2-.767-.367-1.15-.55-.233-.1-.483-.217-.717-.317-.383-.15-.783-.3-1.183-.433-.1-.033-.217-.083-.317-.117a8.07 8.07 0 0 0-.6-.183l-.9-.25c-.183-.05-.367-.083-.55-.133-.233-.05-.483-.117-.717-.167l-.583-.1c-.3-.05-.6-.083-.9-.117-.25-.033-.483-.083-.733-.1a1.617 1.617 0 0 0-.283-.017 1.914 1.914 0 0 0-.317-.017l.067-13.15c3.967.85 7.817 4.7 10.733 10.85a47.469 47.469 0 0 1 2.433 6.433c-.233.083-.45.2-.683.3zm-15.867-4.433c-.1 0-.2.017-.3.017a1.642 1.642 0 0 0-.283.033c-.233.017-.467.067-.683.1a8.387 8.387 0 0 0-.933.133l-.583.1-.7.15c-.183.05-.383.083-.567.133-.3.083-.6.15-.9.25-.2.05-.383.117-.583.183-.117.033-.233.083-.35.117q-.6.2-1.2.45c-.217.083-.433.183-.65.283-.383.167-.767.35-1.15.533a3.76 3.76 0 0 1-.367.183c-.133.067-.283.15-.417.233-.3.167-.583.333-.867.5-.2.117-.383.25-.567.367l-.4.25c-.2.15-.417.283-.617.433-.033.017-.067.05-.1.067-.1-.05-.2-.083-.317-.133-.2-.083-.383-.183-.567-.267A47.473 47.473 0 0 1 27.6 14.35c2.917-6.15 6.75-10 10.717-10.85zM26.167 58.75c.183.133.383.267.567.4.167.117.35.233.517.333.017 0 .017.017.033.017.183.117.35.233.533.35.25.15.5.3.767.433.133.083.283.167.417.233.2.1.4.217.6.317.25.117.483.233.733.35.383.167.75.333 1.133.483.2.083.417.15.617.233.283.1.567.2.867.3a1.078 1.078 0 0 1 .217.067c.083.017.15.05.233.067l.55.15c.35.1.7.167 1.05.25l.467.1a4.261 4.261 0 0 0 .45.083c.417.067.833.133 1.267.183.167.017.333.05.5.067.083 0 .167.017.233.017.117.017.233.017.35.033l.067 13.267h-.05a8.748 8.748 0 0 0-.333-.1 8.9 8.9 0 0 1-1.333-.433c-.1-.05-.183-.1-.283-.15a9.385 9.385 0 0 1-1.317-.717 2.023 2.023 0 0 0-.233-.167 13.9 13.9 0 0 1-1.367-1.033l-.15-.15a18.084 18.084 0 0 1-1.483-1.5 28.722 28.722 0 0 1-4.186-6.566 47.468 47.468 0 0 1-2.433-6.433c.35-.167.666-.334 1-.484z" fill="#a97b3f"/></svg>