<svg id="Group_90" data-name="Group 90" xmlns="http://www.w3.org/2000/svg" viewBox="0 0 38.432 80"><defs><style>.cls-1{fill:#a97b3f}</style></defs><g id="Group_89" data-name="Group 89"><path id="Path_162" data-name="Path 162" class="cls-1" d="M28.428 58.209a7.989 7.989 0 1 0-7.989 7.991 8 8 0 0 0 7.989-7.991z" transform="translate(-1.224 -4.936)"/><path id="Path_163" data-name="Path 163" class="cls-1" d="M4.76 83.412v3.679H34.6v-3.679A11.272 11.272 0 0 0 23.335 72.15h-7.313A11.272 11.272 0 0 0 4.76 83.412z" transform="translate(-.468 -7.091)"/><path id="Path_164" data-name="Path 164" class="cls-1" d="M19.216 38.431A19.216 19.216 0 1 0 0 19.216a19.215 19.215 0 0 0 19.216 19.215zm-8.278-11.3l.947-2.1a1.054 1.054 0 0 1 .6-.559 1.023 1.023 0 0 1 .821.072 11.516 11.516 0 0 0 5.167 1.226c2.11 0 3.643-.866 3.643-2.047 0-.766-.442-1.7-3.724-2.759-3.553-1.118-7.187-2.75-7.187-6.411 0-2.777 2.02-4.95 5.41-5.807l.514-.126v-2.3a1.031 1.031 0 0 1 1.032-1.02H20.6a1.026 1.026 0 0 1 1.028 1.019v2.067l.6.072a12.586 12.586 0 0 1 3.9 1.082 1.04 1.04 0 0 1 .487 1.371l-.983 2.074a1.025 1.025 0 0 1-.929.586 1.006 1.006 0 0 1-.424-.1 10.165 10.165 0 0 0-4.518-.974c-2.164 0-3.129.839-3.129 1.668 0 .929 1.01 1.56 4.157 2.606 3.354 1.1 6.781 2.75 6.781 6.718 0 2.146-1.488 5.032-5.681 6.087l-.514.135v2.381a1.033 1.033 0 0 1-1.028 1.028h-2.466a1.027 1.027 0 0 1-1.028-1.028V29.91l-.613-.063a13.346 13.346 0 0 1-4.869-1.416 1 1 0 0 1-.433-1.298z"/></g></svg>