<svg id="Group_92" data-name="Group 92" xmlns="http://www.w3.org/2000/svg" viewBox="0 0 73.715 80">
  <defs>
    <style>
      .cls-1 {
        fill: #a97b3f;
      }
    </style>
  </defs>
  <g id="Group_91" data-name="Group 91">
    <path id="Path_165" data-name="Path 165" class="cls-1" d="M38.9,0A20.489,20.489,0,1,0,59.388,20.489,20.489,20.489,0,0,0,38.9,0Zm2.862,31.547-.551.142v2.533a1.1,1.1,0,0,1-1.093,1.093h-2.64a1.093,1.093,0,0,1-1.093-1.093V31.911l-.649-.062a14.161,14.161,0,0,1-5.2-1.511,1.092,1.092,0,0,1-.462-1.4l1-2.24a1.139,1.139,0,0,1,.64-.6,1.2,1.2,0,0,1,.356-.062,1.037,1.037,0,0,1,.516.133A12.285,12.285,0,0,0,38.1,27.484c2.249,0,3.884-.924,3.884-2.187,0-.818-.471-1.8-3.973-2.942-3.8-1.191-7.662-2.933-7.662-6.836,0-2.96,2.151-5.28,5.769-6.187l.551-.142V6.738a1.1,1.1,0,0,1,1.093-1.093h2.6A1.093,1.093,0,0,1,41.45,6.738v2.2l.64.08a13.115,13.115,0,0,1,4.169,1.156,1.107,1.107,0,0,1,.524,1.458L45.734,13.84a1.111,1.111,0,0,1-1,.631,1.155,1.155,0,0,1-.453-.1,10.572,10.572,0,0,0-4.791-1.04c-2.311,0-3.342.889-3.342,1.787,0,1,1.076,1.662,4.436,2.773,3.582,1.173,7.236,2.933,7.236,7.164C47.823,27.351,46.232,30.427,41.761,31.547Z" transform="translate(-2.046)"/>
    <path id="Path_166" data-name="Path 166" class="cls-1" d="M48.538,60.909A8.089,8.089,0,1,0,40.449,69,8.1,8.1,0,0,0,48.538,60.909Z" transform="translate(-3.596 -5.869)"/>
    <path id="Path_167" data-name="Path 167" class="cls-1" d="M6.38,68.223a6.373,6.373,0,1,0,6.373-6.373A6.379,6.379,0,0,0,6.38,68.223Z" transform="translate(-0.709 -6.872)"/>
    <path id="Path_168" data-name="Path 168" class="cls-1" d="M68.583,74.6a6.373,6.373,0,1,0-6.373-6.373A6.379,6.379,0,0,0,68.583,74.6Z" transform="translate(-6.912 -6.872)"/>
    <path id="Path_169" data-name="Path 169" class="cls-1" d="M72.017,81.84H59.59a12.593,12.593,0,0,1,.684,4.027v3.227H80.337A8.4,8.4,0,0,0,72.017,81.84Z" transform="translate(-6.621 -9.093)"/>
    <path id="Path_170" data-name="Path 170" class="cls-1" d="M20.062,85.877a12.621,12.621,0,0,1,.658-4q-.307-.027-.613-.027H8.311A8.376,8.376,0,0,0,0,89.094H20.062V85.877Z" transform="translate(0 -9.094)"/>
    <path id="Path_171" data-name="Path 171" class="cls-1" d="M26.22,85.2v3.218H53.313V85.2a9.442,9.442,0,0,0-9.431-9.431H35.651A9.437,9.437,0,0,0,26.22,85.2Z" transform="translate(-2.913 -8.419)"/>
  </g>
</svg>
