<svg xmlns="http://www.w3.org/2000/svg" viewBox="0 0 65.455 80"><g data-name="Group 122"><path data-name="Path 199" d="M1.645.001A1.876 1.876 0 0 0 0 1.819v63.636a1.886 1.886 0 0 0 1.818 1.818h25a20 20 0 1 0 22.273-26.9V16.365a1.906 1.906 0 0 0-.536-1.309L34.009.51a1.815 1.815 0 0 0-1.282-.509zm1.991 3.64h27.273v12.727a1.886 1.886 0 0 0 1.818 1.818h12.727v21.815a20.438 20.438 0 0 0-4.573.536 1.864 1.864 0 0 0-1.791-1.445H9.827a1.82 1.82 0 0 0 .164 3.636h25.427a20.157 20.157 0 0 0-5.373 4.545H9.818a1.82 1.82 0 0 0 .164 3.636h17.672a20.093 20.093 0 0 0-1.709 4.545H9.809a1.82 1.82 0 0 0 .164 3.636h15.481c-.018.3-.027.6-.027.909a20.042 20.042 0 0 0 .345 3.636H3.636zm30.909 2.555l8.355 8.355h-8.355zM9.827 30.91a1.82 1.82 0 0 0 .164 3.636h29.091a1.818 1.818 0 1 0 0-3.636zm33.809 13.073v6.055A15.845 15.845 0 0 1 40 49.156a16.446 16.446 0 0 1 3.636-5.173zm3.636 0a16.659 16.659 0 0 1 3.636 5.173 16.331 16.331 0 0 1-3.636.882zm-9.545 1.618a23.336 23.336 0 0 0-1.055 1.927 22.405 22.405 0 0 1-.964-.655 15.4 15.4 0 0 1 2.019-1.272zm15.454 0a15.459 15.459 0 0 1 2.018 1.282c-.318.227-.636.445-.964.654a21.91 21.91 0 0 0-1.053-1.936zm-20.173 3.773a22.284 22.284 0 0 0 2.355 1.591 30.286 30.286 0 0 0-1.309 7.218H29.2a16.28 16.28 0 0 1 3.809-8.81zm24.891 0a16.213 16.213 0 0 1 3.809 8.809h-4.854a29.84 29.84 0 0 0-1.309-7.218 22.274 22.274 0 0 0 2.355-1.592zm-19.182 3.182a19.647 19.647 0 0 0 4.918 1.136v4.491H37.7a27.158 27.158 0 0 1 1.018-5.628zm13.473 0a25.81 25.81 0 0 1 1.018 5.627h-5.935v-4.491a19.833 19.833 0 0 0 4.918-1.137zM29.208 61.82h4.855a29.831 29.831 0 0 0 1.282 7.218 21.808 21.808 0 0 0-2.355 1.591 16.181 16.181 0 0 1-3.781-8.81zm8.491 0h5.936v4.491a19.95 19.95 0 0 0-4.945 1.136 26.36 26.36 0 0 1-.99-5.628zm9.573 0h5.936a27.047 27.047 0 0 1-.991 5.627 19.95 19.95 0 0 0-4.945-1.136zm9.573 0H61.7a16.277 16.277 0 0 1-3.782 8.809 22.743 22.743 0 0 0-2.355-1.591 29.751 29.751 0 0 0 1.282-7.219zm-13.209 8.154v6.082a16.74 16.74 0 0 1-3.664-5.2 16.564 16.564 0 0 1 3.664-.883zm3.636 0a16.072 16.072 0 0 1 3.664.882 16.739 16.739 0 0 1-3.664 5.2zm-10.6 2.527a22.4 22.4 0 0 0 1.055 1.964 16.327 16.327 0 0 1-2.018-1.309c.318-.227.636-.446.964-.655zm17.564 0c.327.209.645.427.964.655a17.409 17.409 0 0 1-2.018 1.309c.382-.627.727-1.282 1.055-1.964z" fill="#a97b3f"/></g></svg>