<?xml version="1.0" encoding="utf-8"?>
<!-- Generator: Adobe Illustrator 23.0.1, SVG Export Plug-In . SVG Version: 6.00 Build 0)  -->
<svg version="1.1" id="Layer_1" xmlns="http://www.w3.org/2000/svg" xmlns:xlink="http://www.w3.org/1999/xlink" x="0px" y="0px"
	 viewBox="0 0 452 368" style="enable-background:new 0 0 452 368;" xml:space="preserve">
<style type="text/css">
	.st0{fill:#A97B3F;}
	.st1{fill:#D8D8D8;}
</style>
<g id="Group_126" transform="translate(-1039 -2294)">
	<g>
		<path class="st0" d="M1251.1,2389.9v-11.2c2.2,0.2,4.1,1.3,5.4,3.1c0.5,0.7,1.4,0.8,2.1,0.3c0.7-0.5,0.8-1.4,0.3-2.1
			c-1.9-2.6-4.8-4.1-7.9-4.3v-5.3c0-0.8-0.7-1.5-1.5-1.5s-1.5,0.7-1.5,1.5v5.4c-4.6,0.8-8.1,4.3-8.1,8.4c0,4.2,3.5,7.6,8.1,8.4v11.2
			c-1.8-0.4-3.3-1.4-4.4-2.9c-0.5-0.7-1.4-0.8-2.1-0.3c-0.7,0.5-0.8,1.4-0.3,2.1c1.7,2.3,4.1,3.8,6.8,4.2v5.4c0,0.8,0.7,1.5,1.5,1.5
			s1.5-0.7,1.5-1.5v-5.3c5.1-0.4,9.2-4.1,9.2-8.6C1260.2,2394,1256.2,2390.3,1251.1,2389.9z M1242.9,2384.2c0-2.5,2.2-4.7,5.1-5.4
			v10.8C1245.1,2388.9,1242.9,2386.7,1242.9,2384.2z M1251.1,2404v-11.1c3.5,0.4,6.2,2.7,6.2,5.6
			C1257.2,2401.2,1254.5,2403.6,1251.1,2404z"/>
		<path class="st0" d="M1328.1,2312C1328.1,2312,1328.1,2312,1328.1,2312l-118.4,0c-2.3,0-4.1-1.8-4.1-4.1c0-2.3,1.8-4.1,4.1-4.1
			c0,0,0,0,0,0h103c2.7,0,4.9-2.2,4.9-4.9s-2.2-4.9-4.9-4.9c0,0,0,0,0,0h-106.3c-6.3,0-11.4,5.1-11.4,11.4v103
			c0,3.3,2.6,5.9,5.9,5.9c0,0,0,0,0,0h12.5c12.7,20.1,39.3,26.1,59.4,13.4c5.4-3.4,10-8,13.4-13.4h41.9c3.3,0,5.9-2.6,5.9-5.9
			c0,0,0,0,0,0v-90.5C1334,2314.6,1331.4,2312,1328.1,2312z M1284.8,2391.3c0,19.3-15.7,34.9-34.9,34.9c-19.3,0-34.9-15.6-34.9-34.9
			c0-19.3,15.6-34.9,34.9-34.9S1284.8,2371.9,1284.8,2391.3C1284.8,2391.2,1284.8,2391.3,1284.8,2391.3z M1325,2351.9L1325,2351.9
			h-32c-6,0.1-11-4.8-11.1-10.8c-0.1-6,4.8-11,10.8-11.1c0.1,0,0.1,0,0.2,0h32V2351.9z"/>
		<path class="st0" d="M1289.4,2341L1289.4,2341c0,2.6,2.1,4.7,4.7,4.7c2.6,0,4.7-2.1,4.7-4.7c0-2.6-2.1-4.7-4.7-4.7
			C1291.5,2336.3,1289.4,2338.4,1289.4,2341z"/>
	</g>
	<g>
		<path class="st0" d="M1376.4,2615.2c-1.2-0.1-2.3,0.9-2.3,2.1c0,0.1,0,0.2,0,0.3v4.7c-0.1,1.2,0.9,2.3,2.1,2.3c0.1,0,0.2,0,0.3,0
			h14c1.2,0.1,2.3-0.9,2.3-2.1c0-0.1,0-0.2,0-0.3v-4.7c0.1-1.2-0.9-2.3-2.1-2.3c-0.1,0-0.2,0-0.3,0h-2.3v-35.1h2.3
			c1.2,0.1,2.3-0.9,2.3-2.1c0-0.1,0-0.2,0-0.3v-4.7c0.1-1.2-0.9-2.3-2.1-2.3c-0.1,0-0.2,0-0.3,0h-14c-1.2-0.1-2.3,0.9-2.3,2.1
			c0,0.1,0,0.2,0,0.3v4.7c-0.1,1.2,0.9,2.3,2.1,2.3c0.1,0,0.2,0,0.3,0h2.3v35.1H1376.4z"/>
		<path class="st0" d="M1460.6,2615.2c-1.2-0.1-2.3,0.9-2.3,2.1c0,0.1,0,0.2,0,0.3v4.7c-0.1,1.2,0.9,2.3,2.1,2.3c0.1,0,0.2,0,0.3,0
			h14c1.2,0.1,2.3-0.9,2.3-2.1c0-0.1,0-0.2,0-0.3v-4.7c0.1-1.2-0.9-2.3-2.1-2.3c-0.1,0-0.2,0-0.3,0h-2.3v-35.1h2.3
			c1.2,0.1,2.3-0.9,2.3-2.1c0-0.1,0-0.2,0-0.3v-4.7c0.1-1.2-0.9-2.3-2.1-2.3c-0.1,0-0.2,0-0.3,0h-14c-1.2-0.1-2.3,0.9-2.3,2.1
			c0,0.1,0,0.2,0,0.3v4.7c-0.1,1.2,0.9,2.3,2.1,2.3c0.1,0,0.2,0,0.3,0h2.3v35.1H1460.6z"/>
		<path class="st0" d="M1425.5,2521.6l-65.5,35.1v9.4h131v-9.4L1425.5,2521.6z M1425.5,2552c-5.2,0-9.4-4.2-9.4-9.4
			c0-5.2,4.2-9.4,9.4-9.4s9.4,4.2,9.4,9.4C1434.8,2547.8,1430.6,2552,1425.5,2552z"/>
		<path class="st0" d="M1425.6,2601.1c0,0-0.1,0-0.1,0c-16.8,0-30.4,13.6-30.4,30.4s13.6,30.4,30.4,30.4c16.8,0,30.4-13.6,30.4-30.4
			C1455.9,2614.8,1442.4,2601.2,1425.6,2601.1z M1425.6,2657.3c0,0-0.1,0-0.1,0c-14.2,0-25.7-11.5-25.7-25.7s11.5-25.7,25.7-25.7
			s25.7,11.5,25.7,25.7C1451.3,2645.7,1439.8,2657.2,1425.6,2657.3z"/>
		<path class="st0" d="M1360,2643.2v9.4h37.4c-2.1-2.9-3.7-6-4.9-9.4H1360z"/>
		<path class="st0" d="M1453.6,2652.6h37.4v-9.4h-32.5C1457.3,2646.6,1455.6,2649.7,1453.6,2652.6z"/>
		<path class="st0" d="M1367,2638.6h24.1c-0.5-2.3-0.7-4.7-0.7-7c0-0.8,0-1.6,0.2-2.3H1367V2638.6z"/>
		<path class="st0" d="M1484,2638.6v-9.4h-23.6c0,0.7,0.2,1.6,0.2,2.3c0,2.4-0.2,4.7-0.7,7H1484z"/>
		<path class="st0" d="M1444.2,2601.8v-21.8h2.3c1.2,0.1,2.3-0.9,2.3-2.1c0-0.1,0-0.2,0-0.3v-4.7c0.1-1.2-0.9-2.3-2.1-2.3
			c-0.1,0-0.2,0-0.3,0h-14c-1.2-0.1-2.3,0.9-2.3,2.1c0,0.1,0,0.2,0,0.3v4.7c-0.1,1.2,0.9,2.3,2.1,2.3c0.1,0,0.2,0,0.3,0h2.3v17.8
			C1438.1,2598.8,1441.3,2600.1,1444.2,2601.8z"/>
		<path class="st0" d="M1416.1,2597.9v-17.8h2.3c1.2,0.1,2.3-0.9,2.3-2.1c0-0.1,0-0.2,0-0.3v-4.7c0.1-1.2-0.9-2.3-2.1-2.3
			c-0.1,0-0.2,0-0.3,0h-14c-1.2-0.1-2.3,0.9-2.3,2.1c0,0.1,0,0.2,0,0.3v4.7c-0.1,1.2,0.9,2.3,2.1,2.3c0.1,0,0.2,0,0.3,0h2.3v21.8
			C1409.7,2600.1,1412.9,2598.8,1416.1,2597.9z"/>
		<polygon class="st0" points="1430.2,2631.6 1446.3,2622.2 1430.2,2612.8 1430.2,2619.9 1404.4,2619.9 1404.4,2624.5 
			1430.2,2624.5 		"/>
		<polygon class="st0" points="1420.8,2638.6 1420.8,2631.6 1404.7,2640.9 1420.8,2650.3 1420.8,2643.2 1446.5,2643.2 
			1446.5,2638.6 		"/>
	</g>
	<g>
		<path class="st0" d="M1055.4,2615.1c-1.2-0.1-2.3,0.9-2.3,2.1c0,0.1,0,0.2,0,0.3v4.7c-0.1,1.2,0.9,2.3,2.1,2.3c0.1,0,0.2,0,0.3,0
			h14c1.2,0.1,2.3-0.9,2.3-2.1c0-0.1,0-0.2,0-0.3v-4.7c0.1-1.2-0.9-2.3-2.1-2.3c-0.1,0-0.2,0-0.3,0h-2.3V2580h2.3
			c1.2,0.1,2.3-0.9,2.3-2.1c0-0.1,0-0.2,0-0.3v-4.7c0.1-1.2-0.9-2.3-2.1-2.3c-0.1,0-0.2,0-0.3,0h-14c-1.2-0.1-2.3,0.9-2.3,2.1
			c0,0.1,0,0.2,0,0.3v4.7c-0.1,1.2,0.9,2.3,2.1,2.3c0.1,0,0.2,0,0.3,0h2.3v35.1H1055.4z"/>
		<path class="st0" d="M1139.6,2615.1c-1.2-0.1-2.3,0.9-2.3,2.1c0,0.1,0,0.2,0,0.3v4.7c-0.1,1.2,0.9,2.3,2.1,2.3c0.1,0,0.2,0,0.3,0
			h14c1.2,0.1,2.3-0.9,2.3-2.1c0-0.1,0-0.2,0-0.3v-4.7c0.1-1.2-0.9-2.3-2.1-2.3c-0.1,0-0.2,0-0.3,0h-2.3V2580h2.3
			c1.2,0.1,2.3-0.9,2.3-2.1c0-0.1,0-0.2,0-0.3v-4.7c0.1-1.2-0.9-2.3-2.1-2.3c-0.1,0-0.2,0-0.3,0h-14c-1.2-0.1-2.3,0.9-2.3,2.1
			c0,0.1,0,0.2,0,0.3v4.7c-0.1,1.2,0.9,2.3,2.1,2.3c0.1,0,0.2,0,0.3,0h2.3v35.1H1139.6z"/>
		<path class="st0" d="M1104.5,2521.5l-65.5,35.1v9.4h131v-9.4L1104.5,2521.5z M1104.5,2551.9c-5.2,0-9.4-4.2-9.4-9.4
			c0-5.2,4.2-9.4,9.4-9.4s9.4,4.2,9.4,9.4C1113.8,2547.7,1109.6,2551.9,1104.5,2551.9z"/>
		<path class="st0" d="M1104.6,2601c0,0-0.1,0-0.1,0c-16.8,0-30.4,13.6-30.4,30.4s13.6,30.4,30.4,30.4c16.8,0,30.4-13.6,30.4-30.4
			C1134.9,2614.7,1121.4,2601.1,1104.6,2601z M1104.6,2657.2c0,0-0.1,0-0.1,0c-14.2,0-25.7-11.5-25.7-25.7s11.5-25.7,25.7-25.7
			s25.7,11.5,25.7,25.7C1130.3,2645.6,1118.8,2657.1,1104.6,2657.2z"/>
		<path class="st0" d="M1039,2643.1v9.4h37.4c-2.1-2.9-3.7-6-4.9-9.4H1039z"/>
		<path class="st0" d="M1132.6,2652.5h37.4v-9.4h-32.5C1136.3,2646.5,1134.6,2649.6,1132.6,2652.5z"/>
		<path class="st0" d="M1046,2638.5h24.1c-0.5-2.3-0.7-4.7-0.7-7c0-0.8,0-1.6,0.2-2.3H1046V2638.5z"/>
		<path class="st0" d="M1163,2638.5v-9.4h-23.6c0,0.7,0.2,1.6,0.2,2.3c0,2.4-0.2,4.7-0.7,7H1163z"/>
		<path class="st0" d="M1123.2,2601.7V2580h2.3c1.2,0.1,2.3-0.9,2.3-2.1c0-0.1,0-0.2,0-0.3v-4.7c0.1-1.2-0.9-2.3-2.1-2.3
			c-0.1,0-0.2,0-0.3,0h-14c-1.2-0.1-2.3,0.9-2.3,2.1c0,0.1,0,0.2,0,0.3v4.7c-0.1,1.2,0.9,2.3,2.1,2.3c0.1,0,0.2,0,0.3,0h2.3v17.8
			C1117.1,2598.7,1120.3,2600,1123.2,2601.7z"/>
		<path class="st0" d="M1095.1,2597.8V2580h2.3c1.2,0.1,2.3-0.9,2.3-2.1c0-0.1,0-0.2,0-0.3v-4.7c0.1-1.2-0.9-2.3-2.1-2.3
			c-0.1,0-0.2,0-0.3,0h-14c-1.2-0.1-2.3,0.9-2.3,2.1c0,0.1,0,0.2,0,0.3v4.7c-0.1,1.2,0.9,2.3,2.1,2.3c0.1,0,0.2,0,0.3,0h2.3v21.8
			C1088.7,2600,1091.9,2598.7,1095.1,2597.8z"/>
		<polygon class="st0" points="1099.1,2636.4 1089.3,2626.1 1085,2630.3 1099,2644.9 1120.6,2623.3 1116.4,2619.1 		"/>
	</g>
	<polygon class="st1" points="1381.7,2496.3 1381.7,2504.4 1330.6,2453.4 1326.4,2457.6 1376.8,2508 1370.3,2508 1370.3,2514 
		1387.7,2514 1387.7,2496.3 	"/>
	<polygon class="st1" points="1328.5,2601.5 1227.4,2601.5 1232.5,2596.5 1228.2,2592.2 1216,2604.5 1228.5,2617.1 1232.8,2612.8 
		1227.5,2607.5 1328.5,2607.5 	"/>
	<polygon class="st1" points="1194.1,2452.5 1194.1,2458.5 1201.3,2458.5 1150.4,2509.4 1154.6,2513.6 1205.9,2462.4 1205.9,2469.8 
		1211.9,2469.8 1211.9,2452.5 	"/>
</g>
</svg>
