<svg version="1.1" id="Layer_1" xmlns="http://www.w3.org/2000/svg" x="0" y="0" viewBox="0 0 452 368" xml:space="preserve"><style>.st0{fill:#a97b3f}.st1{fill:#d8d8d8}</style><g id="Group_126"><path class="st0" d="M1251.1 2389.9v-11.2c2.2.2 4.1 1.3 5.4 3.1.5.7 1.4.8 2.1.3.7-.5.8-1.4.3-2.1-1.9-2.6-4.8-4.1-7.9-4.3v-5.3c0-.8-.7-1.5-1.5-1.5s-1.5.7-1.5 1.5v5.4c-4.6.8-8.1 4.3-8.1 8.4 0 4.2 3.5 7.6 8.1 8.4v11.2c-1.8-.4-3.3-1.4-4.4-2.9-.5-.7-1.4-.8-2.1-.3-.7.5-.8 1.4-.3 2.1 1.7 2.3 4.1 3.8 6.8 4.2v5.4c0 .8.7 1.5 1.5 1.5s1.5-.7 1.5-1.5v-5.3c5.1-.4 9.2-4.1 9.2-8.6 0-4.4-4-8.1-9.1-8.5zm-8.2-5.7c0-2.5 2.2-4.7 5.1-5.4v10.8c-2.9-.7-5.1-2.9-5.1-5.4zm8.2 19.8v-11.1c3.5.4 6.2 2.7 6.2 5.6-.1 2.7-2.8 5.1-6.2 5.5z" transform="translate(-1039 -2294)"/><path class="st0" d="M1328.1 2312h-118.4c-2.3 0-4.1-1.8-4.1-4.1s1.8-4.1 4.1-4.1h103c2.7 0 4.9-2.2 4.9-4.9s-2.2-4.9-4.9-4.9h-106.3c-6.3 0-11.4 5.1-11.4 11.4v103c0 3.3 2.6 5.9 5.9 5.9h12.5c12.7 20.1 39.3 26.1 59.4 13.4 5.4-3.4 10-8 13.4-13.4h41.9c3.3 0 5.9-2.6 5.9-5.9v-90.5c0-3.3-2.6-5.9-5.9-5.9zm-43.3 79.3c0 19.3-15.7 34.9-34.9 34.9-19.3 0-34.9-15.6-34.9-34.9 0-19.3 15.6-34.9 34.9-34.9s34.9 15.5 34.9 34.9c0-.1 0 0 0 0zm40.2-39.4h-32c-6 .1-11-4.8-11.1-10.8-.1-6 4.8-11 10.8-11.1h32.2v21.9z" transform="translate(-1039 -2294)"/><path class="st0" d="M1289.4 2341c0 2.6 2.1 4.7 4.7 4.7s4.7-2.1 4.7-4.7-2.1-4.7-4.7-4.7-4.7 2.1-4.7 4.7zM1376.4 2615.2c-1.2-.1-2.3.9-2.3 2.1v5c-.1 1.2.9 2.3 2.1 2.3h14.3c1.2.1 2.3-.9 2.3-2.1v-5c.1-1.2-.9-2.3-2.1-2.3H1388.1v-35.1h2.3c1.2.1 2.3-.9 2.3-2.1v-5c.1-1.2-.9-2.3-2.1-2.3h-14.3c-1.2-.1-2.3.9-2.3 2.1v5c-.1 1.2.9 2.3 2.1 2.3H1378.7v35.1h-2.3zM1460.6 2615.2c-1.2-.1-2.3.9-2.3 2.1v5c-.1 1.2.9 2.3 2.1 2.3h14.3c1.2.1 2.3-.9 2.3-2.1v-5c.1-1.2-.9-2.3-2.1-2.3H1472.3v-35.1h2.3c1.2.1 2.3-.9 2.3-2.1v-5c.1-1.2-.9-2.3-2.1-2.3h-14.3c-1.2-.1-2.3.9-2.3 2.1v5c-.1 1.2.9 2.3 2.1 2.3H1462.9v35.1h-2.3zM1425.5 2521.6l-65.5 35.1v9.4h131v-9.4l-65.5-35.1zm0 30.4c-5.2 0-9.4-4.2-9.4-9.4s4.2-9.4 9.4-9.4 9.4 4.2 9.4 9.4c-.1 5.2-4.3 9.4-9.4 9.4zM1425.6 2601.1h-.1c-16.8 0-30.4 13.6-30.4 30.4s13.6 30.4 30.4 30.4c16.8 0 30.4-13.6 30.4-30.4 0-16.7-13.5-30.3-30.3-30.4zm0 56.2h-.1c-14.2 0-25.7-11.5-25.7-25.7s11.5-25.7 25.7-25.7 25.7 11.5 25.7 25.7c.1 14.1-11.4 25.6-25.6 25.7zM1360 2643.2v9.4h37.4c-2.1-2.9-3.7-6-4.9-9.4H1360zM1453.6 2652.6h37.4v-9.4h-32.5c-1.2 3.4-2.9 6.5-4.9 9.4zM1367 2638.6h24.1c-.5-2.3-.7-4.7-.7-7 0-.8 0-1.6.2-2.3H1367v9.3zM1484 2638.6v-9.4h-23.6c0 .7.2 1.6.2 2.3 0 2.4-.2 4.7-.7 7h24.1zM1444.2 2601.8V2580h2.3c1.2.1 2.3-.9 2.3-2.1v-5c.1-1.2-.9-2.3-2.1-2.3h-14.3c-1.2-.1-2.3.9-2.3 2.1v5c-.1 1.2.9 2.3 2.1 2.3H1434.8v17.8c3.3 1 6.5 2.3 9.4 4zM1416.1 2597.9v-17.8h2.3c1.2.1 2.3-.9 2.3-2.1v-5c.1-1.2-.9-2.3-2.1-2.3h-14.3c-1.2-.1-2.3.9-2.3 2.1v5c-.1 1.2.9 2.3 2.1 2.3H1406.7v21.8c3-1.8 6.2-3.1 9.4-4z" transform="translate(-1039 -2294)"/><path class="st0" d="M1430.2 2631.6l16.1-9.4-16.1-9.4v7.1h-25.8v4.6h25.8zM1420.8 2638.6v-7l-16.1 9.3 16.1 9.4v-7.1h25.7v-4.6z" transform="translate(-1039 -2294)"/><g><path class="st0" d="M1055.4 2615.1c-1.2-.1-2.3.9-2.3 2.1v5c-.1 1.2.9 2.3 2.1 2.3h14.3c1.2.1 2.3-.9 2.3-2.1v-5c.1-1.2-.9-2.3-2.1-2.3H1067.1V2580h2.3c1.2.1 2.3-.9 2.3-2.1v-5c.1-1.2-.9-2.3-2.1-2.3h-14.3c-1.2-.1-2.3.9-2.3 2.1v5c-.1 1.2.9 2.3 2.1 2.3H1057.7v35.1h-2.3zM1139.6 2615.1c-1.2-.1-2.3.9-2.3 2.1v5c-.1 1.2.9 2.3 2.1 2.3h14.3c1.2.1 2.3-.9 2.3-2.1v-5c.1-1.2-.9-2.3-2.1-2.3H1151.3V2580h2.3c1.2.1 2.3-.9 2.3-2.1v-5c.1-1.2-.9-2.3-2.1-2.3h-14.3c-1.2-.1-2.3.9-2.3 2.1v5c-.1 1.2.9 2.3 2.1 2.3H1141.9v35.1h-2.3zM1104.5 2521.5l-65.5 35.1v9.4h131v-9.4l-65.5-35.1zm0 30.4c-5.2 0-9.4-4.2-9.4-9.4s4.2-9.4 9.4-9.4 9.4 4.2 9.4 9.4c-.1 5.2-4.3 9.4-9.4 9.4zM1104.6 2601h-.1c-16.8 0-30.4 13.6-30.4 30.4s13.6 30.4 30.4 30.4c16.8 0 30.4-13.6 30.4-30.4 0-16.7-13.5-30.3-30.3-30.4zm0 56.2h-.1c-14.2 0-25.7-11.5-25.7-25.7s11.5-25.7 25.7-25.7 25.7 11.5 25.7 25.7c.1 14.1-11.4 25.6-25.6 25.7zM1039 2643.1v9.4h37.4c-2.1-2.9-3.7-6-4.9-9.4H1039zM1132.6 2652.5h37.4v-9.4h-32.5c-1.2 3.4-2.9 6.5-4.9 9.4zM1046 2638.5h24.1c-.5-2.3-.7-4.7-.7-7 0-.8 0-1.6.2-2.3H1046v9.3zM1163 2638.5v-9.4h-23.6c0 .7.2 1.6.2 2.3 0 2.4-.2 4.7-.7 7h24.1zM1123.2 2601.7V2580h2.3c1.2.1 2.3-.9 2.3-2.1v-5c.1-1.2-.9-2.3-2.1-2.3h-14.3c-1.2-.1-2.3.9-2.3 2.1v5c-.1 1.2.9 2.3 2.1 2.3H1113.8v17.8c3.3.9 6.5 2.2 9.4 3.9zM1095.1 2597.8V2580h2.3c1.2.1 2.3-.9 2.3-2.1v-5c.1-1.2-.9-2.3-2.1-2.3h-14.3c-1.2-.1-2.3.9-2.3 2.1v5c-.1 1.2.9 2.3 2.1 2.3H1085.7v21.8c3-1.8 6.2-3.1 9.4-4z" transform="translate(-1039 -2294)"/><path class="st0" d="M1099.1 2636.4l-9.8-10.3-4.3 4.2 14 14.6 21.6-21.6-4.2-4.2z" transform="translate(-1039 -2294)"/></g><path class="st1" d="M1381.7 2496.3v8.1l-51.1-51-4.2 4.2 50.4 50.4h-6.5v6h17.4v-17.7zM1328.5 2601.5h-101.1l5.1-5-4.3-4.3-12.2 12.3 12.5 12.6 4.3-4.3-5.3-5.3h101zM1194.1 2452.5v6h7.2l-50.9 50.9 4.2 4.2 51.3-51.2v7.4h6v-17.3z" transform="translate(-1039 -2294)"/></g></svg>