<?xml version="1.0" encoding="utf-8"?>
<!-- Generator: Adobe Illustrator 23.0.1, SVG Export Plug-In . SVG Version: 6.00 Build 0)  -->
<svg version="1.1" id="Layer_1" xmlns="http://www.w3.org/2000/svg" xmlns:xlink="http://www.w3.org/1999/xlink" x="0px" y="0px"
	 viewBox="0 0 445 358.5" style="enable-background:new 0 0 445 358.5;" xml:space="preserve">
<style type="text/css">
	.st0{fill:#A97B3F;}
	.st1{fill:#FFFFFF;}
	.st2{fill:#D8D8D8;}
</style>
<g id="Group_127" transform="translate(-366 -2976)">
	<g id="Group_117" transform="translate(366 3203.518)">
		<g id="Path_174">
			<path class="st0" d="M30.4,58.5c1.2,0.1,2.3-0.9,2.3-2.1c0-0.1,0-0.2,0-0.3v-4.7c0.1-1.2-0.9-2.3-2.1-2.3c-0.1,0-0.2,0-0.3,0h-14
				C15.2,49,14.1,50,14,51.2c0,0.1,0,0.2,0,0.3v4.7c-0.1,1.2,0.9,2.3,2.1,2.3c0.1,0,0.2,0,0.3,0h2.3v35.1h-2.3
				c-1.2-0.1-2.3,0.9-2.3,2.1c0,0.1,0,0.2,0,0.3v4.7c-0.1,1.2,0.9,2.3,2.1,2.3c0.1,0,0.2,0,0.3,0h14c1.2,0.1,2.3-0.9,2.3-2.1
				c0-0.1,0-0.2,0-0.3v-4.7c0.1-1.2-0.9-2.3-2.1-2.3c-0.1,0-0.2,0-0.3,0h-2.3V58.5H30.4z"/>
		</g>
		<g id="Path_175">
			<path class="st0" d="M114.6,58.5c1.2,0.1,2.3-0.9,2.3-2.1c0-0.1,0-0.2,0-0.3v-4.7c0.1-1.2-0.9-2.3-2.1-2.3c-0.1,0-0.2,0-0.3,0
				h-14c-1.2-0.1-2.3,0.9-2.3,2.1c0,0.1,0,0.2,0,0.3v4.7c-0.1,1.2,0.9,2.3,2.1,2.3c0.1,0,0.2,0,0.3,0h2.3v35.1h-2.3
				c-1.2-0.1-2.3,0.9-2.3,2.1c0,0.1,0,0.2,0,0.3v4.7c-0.1,1.2,0.9,2.3,2.1,2.3c0.1,0,0.2,0,0.3,0h14c1.2,0.1,2.3-0.9,2.3-2.1
				c0-0.1,0-0.2,0-0.3v-4.7c0.1-1.2-0.9-2.3-2.1-2.3c-0.1,0-0.2,0-0.3,0h-2.3V58.5H114.6z"/>
		</g>
		<g id="Path_190">
			<path class="st0" d="M86.6,58.5c1.2,0.1,2.3-0.9,2.3-2.1c0-0.1,0-0.2,0-0.3v-4.7c0.1-1.2-0.9-2.3-2.1-2.3c-0.1,0-0.2,0-0.3,0h-14
				c-1.2-0.1-2.3,0.9-2.3,2.1c0,0.1,0,0.2,0,0.3v4.7c-0.1,1.2,0.9,2.3,2.1,2.3c0.1,0,0.2,0,0.3,0h2.3v35.1h-2.3
				c-1.2-0.1-2.3,0.9-2.3,2.1c0,0.1,0,0.2,0,0.3v4.7c-0.1,1.2,0.9,2.3,2.1,2.3c0.1,0,0.2,0,0.3,0h14c1.2,0.1,2.3-0.9,2.3-2.1
				c0-0.1,0-0.2,0-0.3v-4.7c0.1-1.2-0.9-2.3-2.1-2.3c-0.1,0-0.2,0-0.3,0h-2.3V58.5H86.6z"/>
		</g>
		<g id="Path_191">
			<path class="st0" d="M58.6,58.5c1.2,0.1,2.3-0.9,2.3-2.1c0-0.1,0-0.2,0-0.3v-4.7c0.1-1.2-0.9-2.3-2.1-2.3c-0.1,0-0.2,0-0.3,0h-14
				c-1.2-0.1-2.3,0.9-2.3,2.1c0,0.1,0,0.2,0,0.3v4.7c-0.1,1.2,0.9,2.3,2.1,2.3c0.1,0,0.2,0,0.3,0h2.3v35.1h-2.3
				c-1.2-0.1-2.3,0.9-2.3,2.1c0,0.1,0,0.2,0,0.3v4.7c-0.1,1.2,0.9,2.3,2.1,2.3c0.1,0,0.2,0,0.3,0h14c1.2,0.1,2.3-0.9,2.3-2.1
				c0-0.1,0-0.2,0-0.3v-4.7c0.1-1.2-0.9-2.3-2.1-2.3c-0.1,0-0.2,0-0.3,0h-2.3V58.5H58.6z"/>
		</g>
		<g id="Path_176">
			<path class="st0" d="M65.5,0L0,35.1v9.4h131v-9.4L65.5,0z M65.5,30.4c-5.2,0-9.4-4.2-9.4-9.4s4.2-9.4,9.4-9.4s9.4,4.2,9.4,9.4
				C74.8,26.2,70.6,30.4,65.5,30.4z"/>
		</g>
		<g id="Path_178">
			<path class="st0" d="M99,121.6H0v9.4h114C108.5,128.7,103.4,125.5,99,121.6z"/>
		</g>
		<g id="Path_179">
			<path class="st0" d="M98.5,121.6c-1.2,3.3-2.8,6.5-4.9,9.4H131v-9.4H98.5z"/>
		</g>
		<g id="Path_180">
			<path class="st0" d="M30.4,109.9c0-0.8,0-1.6,0.2-2.3H7v9.4h24.1C30.6,114.6,30.4,112.3,30.4,109.9z"/>
		</g>
		<g id="Path_181">
			<path class="st0" d="M27.2,107.6c0,0.7,1,1.6,1,2.3c-0.1,2.6-1.1,5.1-2.9,7H124v-9.4H27.2z"/>
		</g>
		<g id="Path_182">
			<path class="st0" d="M86.5,49.1h-14c-1.2-0.1-2.3,0.9-2.3,2.1c0,0.1,0,0.2,0,0.3v4.7c-0.1,1.2,0.9,2.3,2.1,2.3c0.1,0,0.2,0,0.3,0
				h2.3v17.8c3.3,0.9,6.4,2.3,9.4,4V58.5h2.3c1.2,0.1,2.3-0.9,2.3-2.1c0-0.1,0-0.2,0-0.3v-4.7c0.1-1.2-0.9-2.3-2.1-2.3
				C86.7,49.1,86.6,49.1,86.5,49.1z"/>
		</g>
		<g id="Path_183">
			<path class="st0" d="M58.5,49.1h-14c-1.2-0.1-2.3,0.9-2.3,2.1c0,0.1,0,0.2,0,0.3v4.7c-0.1,1.2,0.9,2.3,2.1,2.3c0.1,0,0.2,0,0.3,0
				h2.3v21.8c2.9-1.7,6.1-3,9.4-4V58.5h2.3c1.2,0.1,2.3-0.9,2.3-2.1c0-0.1,0-0.2,0-0.3v-4.7c0.1-1.2-0.9-2.3-2.1-2.3
				C58.6,49.1,58.6,49.1,58.5,49.1z"/>
		</g>
	</g>
	<g id="Group_118" transform="translate(684 3206.773)">
		<g id="Group_70" transform="translate(0 0)">
			<g id="Group_68" transform="translate(0)">
				<g id="Path_90">
					<path class="st0" d="M58.6,117.2L58.6,117.2C26.2,117.2,0,91,0,58.6l0,0C0,26.2,26.2,0,58.6,0l0,0c32.4,0,58.6,26.2,58.6,58.6
						l0,0C117.2,91,91,117.2,58.6,117.2z"/>
				</g>
				<g id="Path_91">
					<path class="st1" d="M58.6,113c-14.5,0-28.2-5.7-38.5-15.9C9.9,86.8,4.2,73.2,4.2,58.6c0-30,24.4-54.4,54.4-54.4
						c30,0,54.4,24.4,54.4,54.4C113,88.6,88.6,113,58.6,113L58.6,113C58.6,113,58.6,113,58.6,113z M58.6,5.2
						c-29.5,0-53.4,24-53.4,53.4c0,14.3,5.6,27.7,15.6,37.8C30.9,106.5,44.3,112,58.6,112c0,0,0,0,0,0l0,0c29.4,0,53.4-24,53.4-53.4
						C112,29.2,88.1,5.2,58.6,5.2z"/>
				</g>
				<g id="Group_67" transform="translate(13.78 13.727)">
					<g id="Path_92">
						<path class="st1" d="M4.7,40.2l-1,0.3l-0.2,1.9l1,0.5l-0.1,1L0,41.6l0.1-0.9l4.7-1.5L4.7,40.2z M1.2,41.2L2.6,42l0.1-1.2
							L1.2,41.2z"/>
					</g>
					<g id="Path_93">
						<path class="st1" d="M5.6,35.5L4,36.1l-0.2,0.8l1.4,0.3l-0.2,1l-4.4-1l0.5-2c0.2-1,0.9-1.5,1.8-1.3l0,0C3.5,33.9,4,34.4,4,35
							l1.8-0.7L5.6,35.5z M2.7,34.8c-0.4-0.1-0.7,0.1-0.8,0.6l-0.2,1l1.3,0.3l0.2-1C3.3,35.2,3.1,34.9,2.7,34.8L2.7,34.8z"/>
					</g>
					<g id="Path_94">
						<path class="st1" d="M6.2,33.3L2,31.8l1.1-3.2l0.8,0.3l-0.8,2.3L4,31.4l0.7-2l0.8,0.3l-0.7,2L5.7,32l0.8-2.3L7.4,30L6.2,33.3z
							"/>
					</g>
					<g id="Path_95">
						<path class="st1" d="M5.5,25.5l3.2,1.6L8.3,28l-3.2-1.6l-0.6,1.2l-0.8-0.4l1.6-3.4l0.8,0.4L5.5,25.5z"/>
					</g>
					<g id="Path_96">
						<path class="st1" d="M9.9,24.9l-3.8-2.4l1.8-2.9l0.7,0.5l-1.3,2l0.8,0.5l1.1-1.8l0.7,0.5L8.9,23l0.8,0.5l1.3-2.1l0.7,0.5
							L9.9,24.9z"/>
					</g>
					<g id="Path_97">
						<path class="st1" d="M13.9,19.3c-0.8,1-2.2,1.2-3.2,0.4c0,0-0.1,0-0.1-0.1l0,0c-1-0.8-1.1-2.3-0.3-3.3c0,0,0,0,0-0.1
							c0.8-1,2.2-1.2,3.2-0.4c0,0,0.1,0,0.1,0.1l0,0C14.6,16.8,14.8,18.3,13.9,19.3C13.9,19.3,13.9,19.3,13.9,19.3z M13,16.8
							c-0.6-0.5-1.4-0.5-1.9,0.1c0,0,0,0,0,0c-0.5,0.6-0.4,1.4,0.2,1.9c0,0,0,0,0,0l0,0c0.6,0.5,1.4,0.5,1.9-0.1c0,0,0,0,0,0
							C13.7,18.2,13.6,17.3,13,16.8C13,16.8,13,16.8,13,16.8L13,16.8z"/>
					</g>
					<g id="Path_98">
						<path class="st1" d="M17.4,15.5c-0.5,0.5-1.2,0.8-1.9,0.8l-0.1-0.9c0.5,0,1-0.2,1.3-0.5c0.3-0.3,0.4-0.6,0.2-0.8l0,0
							c-0.2-0.2-0.4-0.2-1,0.2c-0.8,0.5-1.4,0.7-2,0l0,0c-0.5-0.6-0.5-1.5,0.1-2c0,0,0.1,0,0.1-0.1c0.4-0.4,1-0.7,1.6-0.7l0.1,0.9
							c-0.4,0-0.8,0.2-1.2,0.5c-0.3,0.3-0.3,0.5-0.2,0.7l0,0c0.2,0.2,0.4,0.2,1.1-0.2c0.8-0.5,1.4-0.6,2,0l0,0
							c0.5,0.6,0.5,1.5-0.1,2C17.5,15.5,17.5,15.5,17.4,15.5z"/>
					</g>
					<g id="Path_99">
						<path class="st1" d="M21.3,12.2l-0.6-0.8l0.8-0.6l0.6,0.8L21.3,12.2z"/>
					</g>
					<g id="Path_100">
						<path class="st1" d="M27.2,8.7c-1.1,0.6-2.5,0.2-3.1-0.9c0,0,0,0,0-0.1l0,0c-0.6-1.1-0.2-2.5,0.9-3.1c0,0,0.1,0,0.1,0
							c0.6-0.3,1.3-0.4,1.9-0.2l-0.2,0.9c-0.4-0.1-0.9-0.1-1.3,0.1c-0.6,0.3-0.9,1.2-0.5,1.8c0,0,0,0,0,0l0,0c0.3,0.7,1.1,1,1.8,0.7
							c0,0,0,0,0,0c0.4-0.2,0.7-0.6,0.8-1l0.9,0.3C28.3,7.9,27.8,8.5,27.2,8.7z"/>
					</g>
					<g id="Path_101">
						<path class="st1" d="M31.8,6.8c-1.2,0.5-2.5-0.1-3-1.3c0,0,0-0.1,0-0.1l0,0c-0.4-1.2,0.2-2.5,1.4-3c0,0,0,0,0.1,0
							c1.2-0.5,2.5,0.1,3,1.3c0,0,0,0.1,0,0.1l0,0C33.7,5,33.1,6.3,31.8,6.8C31.9,6.8,31.8,6.8,31.8,6.8z M32.3,4.1
							c-0.2-0.7-1-1.1-1.7-0.9c0,0,0,0,0,0c-0.7,0.2-1.1,1-0.8,1.7c0,0,0,0,0,0l0,0c0.2,0.7,1,1.1,1.7,0.9c0,0,0,0,0,0
							C32.2,5.7,32.6,4.9,32.3,4.1C32.3,4.2,32.3,4.1,32.3,4.1L32.3,4.1z"/>
					</g>
					<g id="Path_102">
						<path class="st1" d="M35.3,5.6l-1.1-4.4l1-0.2l1.1,4.4L35.3,5.6z"/>
					</g>
					<g id="Path_103">
						<path class="st1" d="M40.9,4.6l-2.6-2.5l0.4,2.8l-1,0.1l-0.6-4.5L38,0.4l2.5,2.4l-0.4-2.7L41,0l0.6,4.5L40.9,4.6z"/>
					</g>
					<g id="Path_104">
						<path class="st1" d="M45.4,4.3l0-1l1,0l0,1L45.4,4.3z"/>
					</g>
					<g id="Path_105">
						<path class="st1" d="M53.4,5L53.1,4l-1.9-0.3l-0.6,0.9l-1-0.2l2.6-4.2l0.9,0.1l1.2,4.8L53.4,5z M52.6,1.5l-0.8,1.4L52.9,3
							L52.6,1.5z"/>
					</g>
					<g id="Path_106">
						<path class="st1" d="M58.1,6.2l-0.5-1.6l-0.7-0.2l-0.4,1.4l-0.9-0.3l1.3-4.3l2,0.6c0.8,0.1,1.4,0.8,1.3,1.6
							c0,0.1,0,0.2-0.1,0.3l0,0c-0.1,0.6-0.7,1.1-1.3,1.1l0.6,1.8L58.1,6.2z M58.9,3.4C59,3,58.8,2.7,58.3,2.5l-0.9-0.3L57,3.5
							l1,0.3C58.3,3.9,58.7,3.8,58.9,3.4C58.9,3.4,58.9,3.4,58.9,3.4L58.9,3.4z"/>
					</g>
					<g id="Path_107">
						<path class="st1" d="M60.2,6.9L62,2.8l3.1,1.3l-0.3,0.8L62.5,4l-0.4,0.8l2,0.8l-0.3,0.8l-2-0.8l-0.4,0.9l2.2,0.9l-0.3,0.8
							L60.2,6.9z"/>
					</g>
					<g id="Path_108">
						<path class="st1" d="M68,6.7l-1.8,3.1l-0.9-0.5l1.8-3.1l-1.2-0.7l0.4-0.8l3.3,1.8l-0.4,0.8L68,6.7z"/>
					</g>
					<g id="Path_109">
						<path class="st1" d="M68.4,11.1L71,7.5l2.8,2l-0.5,0.7l-2-1.4l-0.5,0.7l1.7,1.2L72,11.4l-1.7-1.2L69.7,11l2,1.4l-0.5,0.7
							L68.4,11.1z"/>
					</g>
					<g id="Path_110">
						<path class="st1" d="M73.7,15.4c-1-0.8-1.1-2.3-0.2-3.3c0,0,0,0,0.1-0.1l0,0c1-0.9,2.5-0.9,3.4,0.1c0.8,0.9,0.9,2.2,0.1,3.1
							l0,0C76.2,16.3,74.7,16.3,73.7,15.4C73.7,15.5,73.7,15.4,73.7,15.4z M76.3,14.6c0.5-0.5,0.5-1.4,0-1.9c0,0,0,0,0,0
							c-0.5-0.5-1.4-0.5-1.9,0.1c0,0,0,0,0,0.1l0,0c-0.5,0.5-0.5,1.4,0,1.9c0,0,0,0,0,0C74.9,15.3,75.7,15.2,76.3,14.6
							C76.2,14.7,76.2,14.7,76.3,14.6L76.3,14.6z"/>
					</g>
					<g id="Path_111">
						<path class="st1" d="M77.3,19.2c-0.5-0.5-0.7-1.2-0.7-1.9l0.9,0c0,0.5,0.1,1,0.4,1.4c0.3,0.3,0.5,0.4,0.7,0.2l0,0
							c0.2-0.2,0.2-0.4-0.1-1.1c-0.4-0.8-0.6-1.5,0.1-2l0,0c0.6-0.5,1.5-0.4,2,0.2c0,0,0.1,0.1,0.1,0.1c0.4,0.5,0.6,1,0.6,1.7
							l-0.9,0.1c0-0.4-0.2-0.8-0.4-1.2c-0.2-0.3-0.5-0.3-0.7-0.2l0,0c-0.2,0.2-0.2,0.4,0.2,1.1c0.4,0.9,0.5,1.5-0.1,2l0,0
							c-0.6,0.5-1.5,0.4-2-0.2C77.3,19.3,77.3,19.2,77.3,19.2z"/>
					</g>
					<g id="Path_112">
						<path class="st1" d="M80.3,23.3l0.9-0.5l0.6,0.9l-0.9,0.5L80.3,23.3z"/>
					</g>
					<g id="Path_113">
						<path class="st1" d="M83.5,29.3c-0.5-1.1,0-2.5,1.1-3c0,0,0,0,0.1,0l0,0c1.2-0.5,2.6,0.1,3.1,1.4c0.2,0.6,0.2,1.2,0,1.8
							l-0.9-0.3c0.2-0.4,0.2-0.9,0-1.3c-0.3-0.7-1.1-1-1.8-0.7c0,0,0,0,0,0l0,0c-0.7,0.3-1,1-0.8,1.7c0,0,0,0,0,0
							c0.2,0.4,0.5,0.7,1,0.9l-0.3,0.8C84.3,30.5,83.7,30,83.5,29.3z"/>
					</g>
					<g id="Path_114">
						<path class="st1" d="M85.2,34c-0.4-1.2,0.3-2.5,1.5-2.9c0,0,0.1,0,0.1,0l0,0c1.3-0.3,2.6,0.4,2.9,1.7c0.3,1.2-0.4,2.5-1.6,2.9
							l0,0C86.8,36,85.6,35.3,85.2,34C85.2,34.1,85.2,34.1,85.2,34z M87.8,34.7c0.7-0.2,1.2-0.9,1-1.7c0,0,0,0,0,0
							c-0.2-0.7-1-1.1-1.7-0.9c0,0,0,0-0.1,0l0,0c-0.7,0.2-1.2,0.9-1,1.7c0,0,0,0,0,0C86.3,34.5,87,34.9,87.8,34.7
							C87.7,34.7,87.8,34.7,87.8,34.7L87.8,34.7z"/>
					</g>
					<g id="Path_115">
						<path class="st1" d="M86.1,37.6l4.4-0.8l0.2,1l-4.4,0.8L86.1,37.6z"/>
					</g>
					<g id="Path_116">
						<path class="st1" d="M86.8,43.2l2.7-2.4L86.7,41l-0.1-1l4.5-0.4l0.1,0.9l-2.6,2.3l2.8-0.2l0.1,1L86.9,44L86.8,43.2z"/>
					</g>
				</g>
			</g>
			<g id="Group_69" transform="translate(13.641 62.118)">
				<g id="Path_117">
					<path class="st1" d="M86.7,3.9l1-0.3l0.2-1.9l-1-0.5l0.1-1l4.3,2.4l-0.1,0.9l-4.7,1.5L86.7,3.9z M90.2,2.8l-1.4-0.7l-0.1,1.2
						L90.2,2.8z"/>
				</g>
				<g id="Path_118">
					<path class="st1" d="M85.8,8.6L87.4,8l0.2-0.8l-1.4-0.3l0.2-1l4.4,1l-0.5,2c-0.2,1-0.9,1.5-1.8,1.3l0,0
						c-0.6-0.1-1.1-0.6-1.1-1.2l-1.8,0.7L85.8,8.6z M88.7,9.3c0.4,0.1,0.7-0.1,0.8-0.6l0.2-1l-1.3-0.3l-0.2,1
						C88.1,8.9,88.3,9.2,88.7,9.3L88.7,9.3z"/>
				</g>
				<g id="Path_119">
					<path class="st1" d="M85.2,10.8l4.2,1.5l-1.1,3.2l-0.8-0.3l0.8-2.3l-0.9-0.3l-0.7,2l-0.8-0.3l0.7-2L85.7,12l-0.8,2.3L84,14
						L85.2,10.8z"/>
				</g>
				<g id="Path_120">
					<path class="st1" d="M85.9,18.6L82.7,17l0.4-0.9l3.2,1.6l0.6-1.2l0.8,0.4l-1.6,3.4l-0.8-0.4L85.9,18.6z"/>
				</g>
				<g id="Path_121">
					<path class="st1" d="M81.5,19.2l3.8,2.4l-1.8,2.9L82.7,24l1.3-2l-0.8-0.5l-1.1,1.8l-0.7-0.5l1.1-1.8l-0.8-0.5l-1.3,2.1
						l-0.7-0.5L81.5,19.2z"/>
				</g>
				<g id="Path_122">
					<path class="st1" d="M77.5,24.7c0.8-1,2.2-1.2,3.2-0.4c0,0,0.1,0,0.1,0.1l0,0c1,0.8,1.1,2.3,0.3,3.3c0,0,0,0,0,0.1
						c-0.8,1-2.2,1.2-3.2,0.4c0,0-0.1,0-0.1-0.1l0,0C76.8,27.2,76.6,25.8,77.5,24.7C77.5,24.8,77.5,24.7,77.5,24.7z M78.4,27.3
						c0.6,0.5,1.4,0.5,1.9-0.1c0,0,0,0,0,0c0.5-0.6,0.4-1.4-0.2-1.9c0,0,0,0,0,0l0,0c-0.6-0.5-1.4-0.5-1.9,0.1c0,0,0,0,0,0
						C77.7,25.9,77.8,26.7,78.4,27.3C78.4,27.2,78.4,27.2,78.4,27.3L78.4,27.3z"/>
				</g>
				<g id="Path_123">
					<path class="st1" d="M74,28.5c0.5-0.5,1.2-0.8,1.9-0.8l0.1,0.9c-0.5,0-1,0.2-1.4,0.5c-0.3,0.3-0.4,0.6-0.2,0.8l0,0
						c0.2,0.2,0.4,0.2,1.1-0.2c0.8-0.5,1.4-0.7,2,0l0,0c0.5,0.6,0.5,1.5-0.1,2c0,0-0.1,0.1-0.1,0.1c-0.4,0.4-1,0.7-1.6,0.7l-0.1-0.9
						c0.4,0,0.8-0.2,1.2-0.5c0.3-0.3,0.3-0.5,0.1-0.7l0,0c-0.2-0.2-0.4-0.2-1.1,0.2c-0.8,0.4-1.4,0.6-2,0l0,0
						c-0.5-0.6-0.5-1.5,0.1-2C73.9,28.6,73.9,28.5,74,28.5z"/>
				</g>
				<g id="Path_124">
					<path class="st1" d="M70.1,31.8l0.6,0.8l-0.8,0.6l-0.6-0.8L70.1,31.8z"/>
				</g>
				<g id="Path_125">
					<path class="st1" d="M64.2,35.3c1.1-0.6,2.5-0.2,3.1,1c0,0,0,0,0,0.1l0,0c0.6,1.1,0.2,2.5-0.9,3.1c0,0-0.1,0-0.1,0
						c-0.6,0.3-1.3,0.4-1.9,0.2l0.2-0.9c0.4,0.1,0.9,0.1,1.3-0.1c0.6-0.3,0.9-1.2,0.5-1.8c0,0,0,0,0,0l0,0c-0.3-0.7-1.1-1-1.8-0.7
						c0,0,0,0,0,0c-0.4,0.2-0.7,0.6-0.8,1l-0.9-0.3C63.1,36.2,63.6,35.6,64.2,35.3z"/>
				</g>
				<g id="Path_126">
					<path class="st1" d="M59.6,37.3c1.2-0.5,2.5,0.1,3,1.3c0,0,0,0.1,0,0.1l0,0c0.4,1.3-0.3,2.6-1.5,3c-1.2,0.4-2.5-0.2-3-1.4l0,0
						C57.7,39.1,58.3,37.7,59.6,37.3C59.6,37.3,59.6,37.3,59.6,37.3z M59.1,39.9c0.2,0.7,1,1.1,1.7,0.9c0,0,0,0,0,0
						c0.7-0.2,1.1-1,0.8-1.7c0,0,0,0,0,0l0,0c-0.2-0.7-1-1.1-1.7-0.9c0,0,0,0,0,0C59.2,38.4,58.8,39.2,59.1,39.9
						C59.1,39.9,59.1,39.9,59.1,39.9L59.1,39.9z"/>
				</g>
				<g id="Path_127">
					<path class="st1" d="M56.1,38.4l1.1,4.4l-1,0.2l-1.1-4.4L56.1,38.4z"/>
				</g>
				<g id="Path_128">
					<path class="st1" d="M50.5,39.5l2.6,2.5l-0.4-2.8l1-0.1l0.6,4.5l-0.9,0.1l-2.5-2.4l0.4,2.7l-1,0.1l-0.6-4.5L50.5,39.5z"/>
				</g>
				<g id="Path_129">
					<path class="st1" d="M46,39.7l0,1l-1,0l0-1L46,39.7z"/>
				</g>
				<g id="Path_130">
					<path class="st1" d="M38,39l0.3,1.1l1.9,0.3l0.6-0.9l1,0.2l-2.6,4.2l-0.9-0.1L37,38.9L38,39z M38.8,42.5l0.8-1.4L38.5,41
						L38.8,42.5z"/>
				</g>
				<g id="Path_131">
					<path class="st1" d="M33.3,37.8l0.5,1.6l0.7,0.2l0.4-1.4l0.9,0.3l-1.3,4.3l-2-0.6c-0.8-0.1-1.4-0.8-1.3-1.6
						c0-0.1,0-0.2,0.1-0.3l0,0c0.1-0.6,0.7-1,1.3-1.1l-0.6-1.8L33.3,37.8z M32.5,40.7c-0.1,0.4,0.1,0.7,0.6,0.8l0.9,0.3l0.4-1.2
						l-1-0.3C33.1,40.1,32.7,40.3,32.5,40.7C32.5,40.6,32.5,40.6,32.5,40.7L32.5,40.7z"/>
				</g>
				<g id="Path_132">
					<path class="st1" d="M31.2,37.1l-1.8,4.1l-3.1-1.3l0.3-0.8l2.2,0.9l0.4-0.8l-2-0.8l0.3-0.8l2,0.8l0.4-0.9l-2.2-0.9l0.3-0.8
						L31.2,37.1z"/>
				</g>
				<g id="Path_133">
					<path class="st1" d="M23.4,37.3l1.8-3.1l0.9,0.5l-1.8,3.1l1.2,0.7L25,39.3l-3.3-1.8l0.4-0.8L23.4,37.3z"/>
				</g>
				<g id="Path_134">
					<path class="st1" d="M23,32.9l-2.6,3.7l-2.8-2l0.5-0.7l2,1.4l0.5-0.7l-1.7-1.2l0.5-0.7l1.7,1.2l0.6-0.8l-2-1.4l0.5-0.7L23,32.9
						z"/>
				</g>
				<g id="Path_135">
					<path class="st1" d="M17.7,28.6c1,0.8,1.1,2.3,0.2,3.3c0,0,0,0-0.1,0.1l0,0c-1,0.9-2.5,0.9-3.4-0.1c-0.8-0.9-0.9-2.2-0.1-3.1
						l0,0C15.2,27.7,16.7,27.7,17.7,28.6C17.7,28.6,17.7,28.6,17.7,28.6z M15.1,29.4c-0.5,0.5-0.5,1.4,0,1.9c0,0,0,0,0,0
						c0.5,0.5,1.4,0.5,1.9-0.1c0,0,0,0,0-0.1l0,0c0.5-0.5,0.5-1.4,0-1.9c0,0,0,0,0,0C16.5,28.8,15.7,28.8,15.1,29.4
						C15.2,29.4,15.2,29.4,15.1,29.4L15.1,29.4z"/>
				</g>
				<g id="Path_136">
					<path class="st1" d="M14.1,24.9c0.5,0.5,0.7,1.2,0.7,1.9l-0.9,0c0-0.5-0.1-1-0.4-1.4c-0.3-0.3-0.5-0.4-0.7-0.2l0,0
						c-0.2,0.2-0.2,0.4,0.1,1.1c0.4,0.8,0.6,1.5-0.1,2l0,0c-0.6,0.5-1.5,0.4-2-0.2c0,0-0.1-0.1-0.1-0.1c-0.4-0.5-0.6-1-0.6-1.6
						l0.9-0.1c0,0.4,0.2,0.8,0.4,1.2c0.2,0.3,0.5,0.3,0.7,0.2l0,0c0.2-0.2,0.2-0.4-0.2-1.1c-0.4-0.9-0.5-1.5,0.1-2l0,0
						c0.6-0.5,1.5-0.4,2,0.2C14.1,24.8,14.1,24.8,14.1,24.9z"/>
				</g>
				<g id="Path_137">
					<path class="st1" d="M11.1,20.8l-0.9,0.5l-0.6-0.9l0.9-0.5L11.1,20.8z"/>
				</g>
				<g id="Path_138">
					<path class="st1" d="M7.9,14.7c0.5,1.1,0,2.5-1.1,3c0,0,0,0-0.1,0l0,0c-1.2,0.5-2.6-0.1-3.1-1.4c-0.2-0.6-0.2-1.2,0-1.8L4.5,15
						c-0.2,0.4-0.2,0.9,0,1.3c0.3,0.7,1.1,1,1.8,0.7c0,0,0,0,0,0l0,0c0.7-0.3,1-1,0.8-1.7c0,0,0,0,0,0c-0.2-0.4-0.5-0.7-1-0.9
						l0.3-0.8C7.1,13.6,7.7,14.1,7.9,14.7z"/>
				</g>
				<g id="Path_139">
					<path class="st1" d="M6.2,10c0.4,1.2-0.3,2.5-1.5,2.9c0,0-0.1,0-0.1,0l0,0c-1.3,0.3-2.6-0.4-2.9-1.7C1.4,10,2.1,8.8,3.3,8.4
						l0,0C4.5,8,5.8,8.7,6.2,10C6.2,10,6.2,10,6.2,10z M3.6,9.4c-0.7,0.2-1.2,0.9-1,1.7c0,0,0,0,0,0c0.2,0.7,1,1.1,1.7,0.9
						c0,0,0,0,0.1,0l0,0c0.7-0.2,1.2-0.9,1-1.7c0,0,0,0,0,0C5.1,9.5,4.4,9.1,3.6,9.4C3.7,9.3,3.6,9.4,3.6,9.4L3.6,9.4z"/>
				</g>
				<g id="Path_140">
					<path class="st1" d="M5.3,6.4L0.8,7.3l-0.2-1l4.4-0.8L5.3,6.4z"/>
				</g>
				<g id="Path_141">
					<path class="st1" d="M4.6,0.8L1.9,3.3L4.7,3l0.1,1L0.3,4.4L0.3,3.5l2.6-2.3L0.1,1.3L0,0.4L4.5,0L4.6,0.8z"/>
				</g>
			</g>
		</g>
		<g id="Group_72" transform="translate(25.203 25.203)">
			<g id="Group_71">
				<g id="Path_142">
					<path class="st0" d="M33.4,66.8L33.4,66.8C15,66.8,0,51.9,0,33.4l0,0C0,15,15,0,33.4,0l0,0c18.5,0,33.4,15,33.4,33.4l0,0
						C66.8,51.9,51.9,66.8,33.4,66.8z"/>
				</g>
			</g>
			<g id="Path_143">
				<path class="st0" d="M33.4,66.8L33.4,66.8C15,66.8,0,51.9,0,33.4l0,0C0,15,15,0,33.4,0l0,0c18.5,0,33.4,15,33.4,33.4l0,0
					C66.8,51.9,51.9,66.8,33.4,66.8z"/>
			</g>
		</g>
		<g id="Group_74" transform="translate(25.203 25.203)">
			<g id="Path_144">
				<path class="st1" d="M33.4,67.3L33.4,67.3c-18.7,0-33.9-15.2-33.9-33.9S14.7-0.5,33.4-0.5c18.7,0,33.9,15.2,33.9,33.9
					C67.3,52.1,52.1,67.3,33.4,67.3z M33.4,0.5C15.3,0.5,0.5,15.3,0.5,33.4s14.8,32.9,32.9,32.9c18.1,0,32.9-14.8,32.9-32.9
					C66.3,15.3,51.6,0.5,33.4,0.5z"/>
			</g>
		</g>
		<g id="Group_76" transform="translate(25.198 34.311)">
			<g id="Path_145">
				<path class="st1" d="M42.9,49.1h-19c-13.5,0-24.4-11-24.4-24.4v-0.8c0-13.5,11-24.4,24.4-24.4h19c13.5,0,24.4,11,24.4,24.4v0.8
					c0,6.5-2.5,12.7-7.1,17.3C55.6,46.6,49.4,49.1,42.9,49.1z M23.9,0.5C11,0.5,0.5,11,0.5,23.9v0.8c0,12.9,10.5,23.4,23.4,23.4h19
					c6.3,0,12.1-2.4,16.6-6.9s6.9-10.3,6.9-16.6v-0.8C66.3,11,55.8,0.5,42.9,0.5H23.9z"/>
			</g>
		</g>
		<g id="Group_78" transform="translate(34.317 25.203)">
			<g id="Group_77">
				<g id="Path_146">
					<path class="st1" d="M25.1,67.3h-1.5c-13.2,0-24-10.8-24-24V23.5c0-13.2,10.8-24,24-24h1.5c13.2,0,24,10.8,24,24v19.8
						C49.1,56.5,38.3,67.3,25.1,67.3z M23.5,0.5c-12.7,0-23,10.3-23,23v19.8c0,12.7,10.3,23,23,23h1.5c12.7,0,23-10.3,23-23V23.5
						c0-12.7-10.3-23-23-23H23.5z"/>
				</g>
			</g>
			<g id="Path_147">
				<path class="st1" d="M25.1,67.3h-1.5c-13.2,0-24-10.8-24-24V23.5c0-13.2,10.8-24,24-24h1.5c13.2,0,24,10.8,24,24v19.8
					C49.1,56.5,38.3,67.3,25.1,67.3z M23.5,0.5c-12.7,0-23,10.3-23,23v19.8c0,12.7,10.3,23,23,23h1.5c12.7,0,23-10.3,23-23V23.5
					c0-12.7-10.3-23-23-23H23.5z"/>
			</g>
		</g>
		<g id="Line_7">
			<rect x="25.2" y="58.1" class="st1" width="66.8" height="1"/>
		</g>
		<g id="Group_80" transform="translate(44.947 25.203)">
			<g id="Group_79">
				<g id="Path_148">
					<path class="st1" d="M13.7,67.3c-3.8,0-7.3-1.5-10-4.1c-2.7-2.7-4.2-6.2-4.2-10V13.7c0-3.8,1.5-7.3,4.1-10s6.2-4.1,10-4.2
						c7.8,0,14.2,6.4,14.2,14.2v39.5C27.8,61,21.5,67.3,13.7,67.3C13.7,67.3,13.7,67.3,13.7,67.3z M13.7,0.5c-3.5,0-6.8,1.4-9.3,3.9
						c-2.5,2.5-3.9,5.8-3.9,9.3v39.5c0,3.5,1.4,6.8,3.9,9.3c2.5,2.5,5.8,3.9,9.3,3.9c0,0,0,0,0,0c7.3,0,13.2-5.9,13.2-13.2V13.7
						C26.8,6.4,20.9,0.5,13.7,0.5z"/>
				</g>
			</g>
			<g id="Path_149">
				<path class="st1" d="M13.7,67.3c-3.8,0-7.3-1.5-10-4.1c-2.7-2.7-4.2-6.2-4.2-10V13.7c0-3.8,1.5-7.3,4.1-10s6.2-4.1,10-4.2
					c7.8,0,14.2,6.4,14.2,14.2v39.5C27.8,61,21.5,67.3,13.7,67.3C13.7,67.3,13.7,67.3,13.7,67.3z M13.7,0.5c-3.5,0-6.8,1.4-9.3,3.9
					c-2.5,2.5-3.9,5.8-3.9,9.3v39.5c0,3.5,1.4,6.8,3.9,9.3c2.5,2.5,5.8,3.9,9.3,3.9c0,0,0,0,0,0c7.3,0,13.2-5.9,13.2-13.2V13.7
					C26.8,6.4,20.9,0.5,13.7,0.5z"/>
			</g>
		</g>
		<g id="Line_8">
			<rect x="58.1" y="25.2" class="st1" width="1" height="66.8"/>
		</g>
	</g>
	<g id="Group_119" transform="translate(532 2976)">
		<g id="Rectangle_56">
			<rect x="22.8" y="50.2" class="st0" width="27.4" height="12.2"/>
		</g>
		<g id="Path_192">
			<path class="st0" d="M100.4,15.2V0H30.7L0,31.4v90.4h15.2V140h103.5V15.2H100.4z M27.4,20.8v8.1h-7.9L27.4,20.8z M12.2,109.6
				V41.1h27.4V12.2h48.7v97.4H12.2z M106.5,127.8H27.4v-6.1h73V27.4h6.1L106.5,127.8z"/>
		</g>
		<g id="Rectangle_57">
			<rect x="22.8" y="68.5" class="st0" width="54.8" height="12.2"/>
		</g>
		<g id="Rectangle_58">
			<rect x="22.8" y="86.7" class="st0" width="54.8" height="12.2"/>
		</g>
	</g>
	<g id="Group_121" transform="translate(-12 -157)">
		<g id="Rectangle_59" transform="translate(763 3431)">
			<g>
				<rect y="0" class="st1" width="60" height="60"/>
			</g>
			<g>
				<path class="st0" d="M60,60H0V0h60V60z M2,58h56V2H2V58z"/>
			</g>
		</g>
		<g id="Group_120" transform="translate(782 3437.785)">
			<g id="Path_193">
				<path class="st0" d="M11.2,0l-0.2,0.8v24l0.2,0.2l11.2-6.6L11.2,0z"/>
			</g>
			<g id="Path_194">
				<path class="st0" d="M11.2,0L0,18.5l11.2,6.6V0z"/>
			</g>
			<g id="Path_195">
				<path class="st0" d="M11.2,27.2L11,27.4V36l0.1,0.4l11.2-15.7L11.2,27.2z"/>
			</g>
			<g id="Path_196">
				<path class="st0" d="M11.2,36.4v-9.1L0,20.6L11.2,36.4z"/>
			</g>
			<g id="Path_197">
				<path class="st0" d="M11.2,25.1l11.2-6.6l-11.2-5.1V25.1z"/>
			</g>
			<g id="Path_198">
				<path class="st0" d="M0,18.5l11.2,6.6V13.4L0,18.5z"/>
			</g>
		</g>
		<g id="Rectangle_60">
			<rect x="772" y="3479" class="st0" width="42" height="5"/>
		</g>
	</g>
	<polygon class="st2" points="655.5,3283.5 554.5,3283.5 559.5,3278.5 555.2,3274.2 543,3286.5 555.5,3299.1 559.8,3294.8 
		554.5,3289.5 655.5,3289.5 	"/>
	<polygon class="st2" points="709.6,3195.4 713.7,3195.2 713.5,3191.5 713.6,3191.4 713.5,3191.3 712.8,3177.5 706.8,3177.8 
		707.2,3184.9 657.6,3135.4 653.4,3139.6 703.5,3189.7 696.1,3190.1 696.4,3196.1 709.2,3195.5 709.4,3195.6 	"/>
	<polygon class="st2" points="521.1,3134.5 521.1,3140.5 528.3,3140.5 477.4,3191.4 481.6,3195.6 532.9,3144.4 532.9,3151.8 
		538.9,3151.8 538.9,3134.5 	"/>
</g>
</svg>
