<svg version="1.1" id="Layer_1" xmlns="http://www.w3.org/2000/svg" x="0" y="0" viewBox="0 0 445 358.5" xml:space="preserve"><style>.st0{fill:#a97b3f}.st1{fill:#fff}.st2{fill:#d8d8d8}</style><g id="Group_127" transform="translate(-366 -2976)"><g id="Group_117" transform="translate(366 3203.518)"><path class="st0" d="M30.4 58.5c1.2.1 2.3-.9 2.3-2.1v-5c.1-1.2-.9-2.3-2.1-2.3H16.3c-1.1-.1-2.2.9-2.3 2.1v5c-.1 1.2.9 2.3 2.1 2.3H18.7v35.1h-2.3c-1.2-.1-2.3.9-2.3 2.1v5c-.1 1.2.9 2.3 2.1 2.3h14.3c1.2.1 2.3-.9 2.3-2.1v-5c.1-1.2-.9-2.3-2.1-2.3H28.1V58.5h2.3z" id="Path_174"/><path class="st0" d="M114.6 58.5c1.2.1 2.3-.9 2.3-2.1v-5c.1-1.2-.9-2.3-2.1-2.3h-14.3c-1.2-.1-2.3.9-2.3 2.1v5c-.1 1.2.9 2.3 2.1 2.3H102.9v35.1h-2.3c-1.2-.1-2.3.9-2.3 2.1v5c-.1 1.2.9 2.3 2.1 2.3h14.3c1.2.1 2.3-.9 2.3-2.1v-5c.1-1.2-.9-2.3-2.1-2.3H112.3V58.5h2.3z" id="Path_175"/><path class="st0" d="M86.6 58.5c1.2.1 2.3-.9 2.3-2.1v-5c.1-1.2-.9-2.3-2.1-2.3H72.5c-1.2-.1-2.3.9-2.3 2.1v5c-.1 1.2.9 2.3 2.1 2.3H74.9v35.1h-2.3c-1.2-.1-2.3.9-2.3 2.1v5c-.1 1.2.9 2.3 2.1 2.3h14.3c1.2.1 2.3-.9 2.3-2.1v-5c.1-1.2-.9-2.3-2.1-2.3H84.3V58.5h2.3z" id="Path_190"/><path class="st0" d="M58.6 58.5c1.2.1 2.3-.9 2.3-2.1v-5c.1-1.2-.9-2.3-2.1-2.3H44.5c-1.2-.1-2.3.9-2.3 2.1v5c-.1 1.2.9 2.3 2.1 2.3H46.9v35.1h-2.3c-1.2-.1-2.3.9-2.3 2.1v5c-.1 1.2.9 2.3 2.1 2.3h14.3c1.2.1 2.3-.9 2.3-2.1v-5c.1-1.2-.9-2.3-2.1-2.3H56.3V58.5h2.3z" id="Path_191"/><path class="st0" d="M65.5 0L0 35.1v9.4h131v-9.4L65.5 0zm0 30.4c-5.2 0-9.4-4.2-9.4-9.4s4.2-9.4 9.4-9.4 9.4 4.2 9.4 9.4c-.1 5.2-4.3 9.4-9.4 9.4z" id="Path_176"/><path class="st0" d="M99 121.6H0v9.4h114c-5.5-2.3-10.6-5.5-15-9.4z" id="Path_178"/><path class="st0" d="M98.5 121.6c-1.2 3.3-2.8 6.5-4.9 9.4H131v-9.4H98.5z" id="Path_179"/><path class="st0" d="M30.4 109.9c0-.8 0-1.6.2-2.3H7v9.4h24.1c-.5-2.4-.7-4.7-.7-7.1z" id="Path_180"/><path class="st0" d="M27.2 107.6c0 .7 1 1.6 1 2.3-.1 2.6-1.1 5.1-2.9 7H124v-9.4H27.2z" id="Path_181"/><path class="st0" d="M86.5 49.1h-14c-1.2-.1-2.3.9-2.3 2.1v5c-.1 1.2.9 2.3 2.1 2.3H74.9v17.8c3.3.9 6.4 2.3 9.4 4V58.5h2.3c1.2.1 2.3-.9 2.3-2.1v-5c.1-1.2-.9-2.3-2.1-2.3h-.3z" id="Path_182"/><path class="st0" d="M58.5 49.1h-14c-1.2-.1-2.3.9-2.3 2.1v5c-.1 1.2.9 2.3 2.1 2.3H46.9v21.8c2.9-1.7 6.1-3 9.4-4V58.5h2.3c1.2.1 2.3-.9 2.3-2.1v-5c.1-1.2-.9-2.3-2.1-2.3h-.3z" id="Path_183"/></g><g id="Group_118" transform="translate(684 3206.773)"><g id="Group_70"><g id="Group_68"><path class="st0" d="M58.6 117.2C26.2 117.2 0 91 0 58.6 0 26.2 26.2 0 58.6 0c32.4 0 58.6 26.2 58.6 58.6 0 32.4-26.2 58.6-58.6 58.6z" id="Path_90"/><path class="st1" d="M58.6 113c-14.5 0-28.2-5.7-38.5-15.9C9.9 86.8 4.2 73.2 4.2 58.6c0-30 24.4-54.4 54.4-54.4S113 28.6 113 58.6 88.6 113 58.6 113zm0-107.8c-29.5 0-53.4 24-53.4 53.4 0 14.3 5.6 27.7 15.6 37.8C30.9 106.5 44.3 112 58.6 112 88 112 112 88 112 58.6S88.1 5.2 58.6 5.2z" id="Path_91"/><g id="Group_67" transform="translate(13.78 13.727)"><path class="st1" d="M4.7 40.2l-1 .3-.2 1.9 1 .5-.1 1L0 41.6l.1-.9 4.7-1.5-.1 1zm-3.5 1l1.4.8.1-1.2-1.5.4z" id="Path_92"/><path class="st1" d="M5.6 35.5l-1.6.6-.2.8 1.4.3-.2 1-4.4-1 .5-2c.2-1 .9-1.5 1.8-1.3.6 0 1.1.5 1.1 1.1l1.8-.7-.2 1.2zm-2.9-.7c-.4-.1-.7.1-.8.6l-.2 1 1.3.3.2-1c.1-.5-.1-.8-.5-.9z" id="Path_93"/><path class="st1" d="M6.2 33.3L2 31.8l1.1-3.2.8.3-.8 2.3.9.2.7-2 .8.3-.7 2 .9.3.8-2.3.9.3-1.2 3.3z" id="Path_94"/><path class="st1" d="M5.5 25.5l3.2 1.6-.4.9-3.2-1.6-.6 1.2-.8-.4 1.6-3.4.8.4-.6 1.3z" id="Path_95"/><path class="st1" d="M9.9 24.9l-3.8-2.4 1.8-2.9.7.5-1.3 2 .8.5 1.1-1.8.7.5-1 1.7.8.5 1.3-2.1.7.5-1.8 3z" id="Path_96"/><path class="st1" d="M13.9 19.3c-.8 1-2.2 1.2-3.2.4 0 0-.1 0-.1-.1-1-.8-1.1-2.3-.3-3.3v-.1c.8-1 2.2-1.2 3.2-.4 0 0 .1 0 .1.1 1 .9 1.2 2.4.3 3.4zm-.9-2.5c-.6-.5-1.4-.5-1.9.1s-.4 1.4.2 1.9c.6.5 1.4.5 1.9-.1.5-.5.4-1.4-.2-1.9z" id="Path_97"/><path class="st1" d="M17.4 15.5c-.5.5-1.2.8-1.9.8l-.1-.9c.5 0 1-.2 1.3-.5.3-.3.4-.6.2-.8-.2-.2-.4-.2-1 .2-.8.5-1.4.7-2 0-.5-.6-.5-1.5.1-2 0 0 .1 0 .1-.1.4-.4 1-.7 1.6-.7l.1.9c-.4 0-.8.2-1.2.5-.3.3-.3.5-.2.7.2.2.4.2 1.1-.2.8-.5 1.4-.6 2 0 .5.6.5 1.5-.1 2 .1.1.1.1 0 .1z" id="Path_98"/><path class="st1" d="M21.3 12.2l-.6-.8.8-.6.6.8-.8.6z" id="Path_99"/><path class="st1" d="M27.2 8.7c-1.1.6-2.5.2-3.1-.9v-.1c-.6-1.1-.2-2.5.9-3.1h.1c.6-.3 1.3-.4 1.9-.2l-.2.9c-.4-.1-.9-.1-1.3.1-.6.3-.9 1.2-.5 1.8.3.7 1.1 1 1.8.7.4-.2.7-.6.8-1l.9.3c-.2.7-.7 1.3-1.3 1.5z" id="Path_100"/><path class="st1" d="M31.8 6.8c-1.2.5-2.5-.1-3-1.3v-.1c-.4-1.2.2-2.5 1.4-3h.1c1.2-.5 2.5.1 3 1.3v.1c.4 1.2-.2 2.5-1.5 3 .1 0 0 0 0 0zm.5-2.7c-.2-.7-1-1.1-1.7-.9-.7.2-1.1 1-.8 1.7.2.7 1 1.1 1.7.9.7-.1 1.1-.9.8-1.7 0 .1 0 0 0 0z" id="Path_101"/><path class="st1" d="M35.3 5.6l-1.1-4.4 1-.2 1.1 4.4-1 .2z" id="Path_102"/><path class="st1" d="M40.9 4.6l-2.6-2.5.4 2.8-1 .1-.6-4.5.9-.1 2.5 2.4-.4-2.7.9-.1.6 4.5-.7.1z" id="Path_103"/><path class="st1" d="M45.4 4.3v-1h1v1h-1z" id="Path_104"/><path class="st1" d="M53.4 5l-.3-1-1.9-.3-.6.9-1-.2L52.2.2l.9.1 1.2 4.8-.9-.1zm-.8-3.5l-.8 1.4 1.1.1-.3-1.5z" id="Path_105"/><path class="st1" d="M58.1 6.2l-.5-1.6-.7-.2-.4 1.4-.9-.3 1.3-4.3 2 .6c.8.1 1.4.8 1.3 1.6 0 .1 0 .2-.1.3-.1.6-.7 1.1-1.3 1.1l.6 1.8-1.3-.4zm.8-2.8c.1-.4-.1-.7-.6-.9l-.9-.3-.4 1.3 1 .3c.3.1.7 0 .9-.4z" id="Path_106"/><path class="st1" d="M60.2 6.9L62 2.8l3.1 1.3-.3.8-2.3-.9-.4.8 2 .8-.3.8-2-.8-.4.9 2.2.9-.3.8-3.1-1.3z" id="Path_107"/><path class="st1" d="M68 6.7l-1.8 3.1-.9-.5 1.8-3.1-1.2-.7.4-.8 3.3 1.8-.4.8-1.2-.6z" id="Path_108"/><path class="st1" d="M68.4 11.1L71 7.5l2.8 2-.5.7-2-1.4-.5.7 1.7 1.2-.5.7-1.7-1.2-.6.8 2 1.4-.5.7-2.8-2z" id="Path_109"/><path class="st1" d="M73.7 15.4c-1-.8-1.1-2.3-.2-3.3l.1-.1c1-.9 2.5-.9 3.4.1.8.9.9 2.2.1 3.1-.9 1.1-2.4 1.1-3.4.2 0 .1 0 0 0 0zm2.6-.8c.5-.5.5-1.4 0-1.9s-1.4-.5-1.9.1v.1c-.5.5-.5 1.4 0 1.9s1.3.4 1.9-.2c-.1.1-.1.1 0 0z" id="Path_110"/><path class="st1" d="M77.3 19.2c-.5-.5-.7-1.2-.7-1.9h.9c0 .5.1 1 .4 1.4.3.3.5.4.7.2.2-.2.2-.4-.1-1.1-.4-.8-.6-1.5.1-2 .6-.5 1.5-.4 2 .2l.1.1c.4.5.6 1 .6 1.7l-.9.1c0-.4-.2-.8-.4-1.2-.2-.3-.5-.3-.7-.2-.2.2-.2.4.2 1.1.4.9.5 1.5-.1 2s-1.5.4-2-.2c-.1-.1-.1-.2-.1-.2z" id="Path_111"/><path class="st1" d="M80.3 23.3l.9-.5.6.9-.9.5-.6-.9z" id="Path_112"/><path class="st1" d="M83.5 29.3c-.5-1.1 0-2.5 1.1-3h.1c1.2-.5 2.6.1 3.1 1.4.2.6.2 1.2 0 1.8l-.9-.3c.2-.4.2-.9 0-1.3-.3-.7-1.1-1-1.8-.7-.7.3-1 1-.8 1.7.2.4.5.7 1 .9l-.3.8c-.7-.1-1.3-.6-1.5-1.3z" id="Path_113"/><path class="st1" d="M85.2 34c-.4-1.2.3-2.5 1.5-2.9h.1c1.3-.3 2.6.4 2.9 1.7.3 1.2-.4 2.5-1.6 2.9-1.3.3-2.5-.4-2.9-1.7 0 .1 0 .1 0 0zm2.6.7c.7-.2 1.2-.9 1-1.7-.2-.7-1-1.1-1.7-.9H87c-.7.2-1.2.9-1 1.7.3.7 1 1.1 1.8.9-.1 0 0 0 0 0z" id="Path_114"/><path class="st1" d="M86.1 37.6l4.4-.8.2 1-4.4.8-.2-1z" id="Path_115"/><path class="st1" d="M86.8 43.2l2.7-2.4-2.8.2-.1-1 4.5-.4.1.9-2.6 2.3 2.8-.2.1 1-4.6.4-.1-.8z" id="Path_116"/></g></g><g id="Group_69" transform="translate(13.641 62.118)"><path class="st1" d="M86.7 3.9l1-.3.2-1.9-1-.5.1-1 4.3 2.4-.1.9L86.5 5l.2-1.1zm3.5-1.1l-1.4-.7-.1 1.2 1.5-.5z" id="Path_117"/><path class="st1" d="M85.8 8.6l1.6-.6.2-.8-1.4-.3.2-1 4.4 1-.5 2c-.2 1-.9 1.5-1.8 1.3-.6-.1-1.1-.6-1.1-1.2l-1.8.7.2-1.1zm2.9.7c.4.1.7-.1.8-.6l.2-1-1.3-.3-.2 1c-.1.5.1.8.5.9z" id="Path_118"/><path class="st1" d="M85.2 10.8l4.2 1.5-1.1 3.2-.8-.3.8-2.3-.9-.3-.7 2-.8-.3.7-2-.9-.3-.8 2.3-.9-.3 1.2-3.2z" id="Path_119"/><path class="st1" d="M85.9 18.6L82.7 17l.4-.9 3.2 1.6.6-1.2.8.4-1.6 3.4-.8-.4.6-1.3z" id="Path_120"/><path class="st1" d="M81.5 19.2l3.8 2.4-1.8 2.9-.8-.5 1.3-2-.8-.5-1.1 1.8-.7-.5 1.1-1.8-.8-.5-1.3 2.1-.7-.5 1.8-2.9z" id="Path_121"/><path class="st1" d="M77.5 24.7c.8-1 2.2-1.2 3.2-.4 0 0 .1 0 .1.1 1 .8 1.1 2.3.3 3.3v.1c-.8 1-2.2 1.2-3.2.4 0 0-.1 0-.1-.1-1-.9-1.2-2.3-.3-3.4 0 .1 0 0 0 0zm.9 2.6c.6.5 1.4.5 1.9-.1s.4-1.4-.2-1.9c-.6-.5-1.4-.5-1.9.1-.5.5-.4 1.3.2 1.9 0-.1 0-.1 0 0z" id="Path_122"/><path class="st1" d="M74 28.5c.5-.5 1.2-.8 1.9-.8l.1.9c-.5 0-1 .2-1.4.5-.3.3-.4.6-.2.8.2.2.4.2 1.1-.2.8-.5 1.4-.7 2 0 .5.6.5 1.5-.1 2l-.1.1c-.4.4-1 .7-1.6.7l-.1-.9c.4 0 .8-.2 1.2-.5.3-.3.3-.5.1-.7-.2-.2-.4-.2-1.1.2-.8.4-1.4.6-2 0-.5-.6-.5-1.5.1-2 0 0 0-.1.1-.1z" id="Path_123"/><path class="st1" d="M70.1 31.8l.6.8-.8.6-.6-.8.8-.6z" id="Path_124"/><path class="st1" d="M64.2 35.3c1.1-.6 2.5-.2 3.1 1v.1c.6 1.1.2 2.5-.9 3.1h-.1c-.6.3-1.3.4-1.9.2l.2-.9c.4.1.9.1 1.3-.1.6-.3.9-1.2.5-1.8-.3-.7-1.1-1-1.8-.7-.4.2-.7.6-.8 1l-.9-.3c.2-.7.7-1.3 1.3-1.6z" id="Path_125"/><path class="st1" d="M59.6 37.3c1.2-.5 2.5.1 3 1.3v.1c.4 1.3-.3 2.6-1.5 3-1.2.4-2.5-.2-3-1.4-.4-1.2.2-2.6 1.5-3zm-.5 2.6c.2.7 1 1.1 1.7.9.7-.2 1.1-1 .8-1.7-.2-.7-1-1.1-1.7-.9-.7.2-1.1 1-.8 1.7z" id="Path_126"/><path class="st1" d="M56.1 38.4l1.1 4.4-1 .2-1.1-4.4 1-.2z" id="Path_127"/><path class="st1" d="M50.5 39.5l2.6 2.5-.4-2.8 1-.1.6 4.5-.9.1-2.5-2.4.4 2.7-1 .1-.6-4.5.8-.1z" id="Path_128"/><path class="st1" d="M46 39.7v1h-1v-1h1z" id="Path_129"/><path class="st1" d="M38 39l.3 1.1 1.9.3.6-.9 1 .2-2.6 4.2-.9-.1-1.3-4.9 1 .1zm.8 3.5l.8-1.4-1.1-.1.3 1.5z" id="Path_130"/><path class="st1" d="M33.3 37.8l.5 1.6.7.2.4-1.4.9.3-1.3 4.3-2-.6c-.8-.1-1.4-.8-1.3-1.6 0-.1 0-.2.1-.3.1-.6.7-1 1.3-1.1l-.6-1.8 1.3.4zm-.8 2.9c-.1.4.1.7.6.8l.9.3.4-1.2-1-.3c-.3-.2-.7 0-.9.4 0-.1 0-.1 0 0z" id="Path_131"/><path class="st1" d="M31.2 37.1l-1.8 4.1-3.1-1.3.3-.8 2.2.9.4-.8-2-.8.3-.8 2 .8.4-.9-2.2-.9.3-.8 3.2 1.3z" id="Path_132"/><path class="st1" d="M23.4 37.3l1.8-3.1.9.5-1.8 3.1 1.2.7-.5.8-3.3-1.8.4-.8 1.3.6z" id="Path_133"/><path class="st1" d="M23 32.9l-2.6 3.7-2.8-2 .5-.7 2 1.4.5-.7-1.7-1.2.5-.7 1.7 1.2.6-.8-2-1.4.5-.7 2.8 1.9z" id="Path_134"/><path class="st1" d="M17.7 28.6c1 .8 1.1 2.3.2 3.3l-.1.1c-1 .9-2.5.9-3.4-.1-.8-.9-.9-2.2-.1-3.1.9-1.1 2.4-1.1 3.4-.2zm-2.6.8c-.5.5-.5 1.4 0 1.9s1.4.5 1.9-.1v-.1c.5-.5.5-1.4 0-1.9-.5-.4-1.3-.4-1.9.2.1 0 .1 0 0 0z" id="Path_135"/><path class="st1" d="M14.1 24.9c.5.5.7 1.2.7 1.9h-.9c0-.5-.1-1-.4-1.4-.3-.3-.5-.4-.7-.2-.2.2-.2.4.1 1.1.4.8.6 1.5-.1 2-.6.5-1.5.4-2-.2l-.1-.1c-.4-.5-.6-1-.6-1.6l.9-.1c0 .4.2.8.4 1.2.2.3.5.3.7.2.2-.2.2-.4-.2-1.1-.4-.9-.5-1.5.1-2s1.5-.4 2 .2c.1 0 .1 0 .1.1z" id="Path_136"/><path class="st1" d="M11.1 20.8l-.9.5-.6-.9.9-.5.6.9z" id="Path_137"/><path class="st1" d="M7.9 14.7c.5 1.1 0 2.5-1.1 3h-.1c-1.2.5-2.6-.1-3.1-1.4-.2-.6-.2-1.2 0-1.8l.9.5c-.2.4-.2.9 0 1.3.3.7 1.1 1 1.8.7.7-.3 1-1 .8-1.7-.2-.4-.5-.7-1-.9l.3-.8c.7 0 1.3.5 1.5 1.1z" id="Path_138"/><path class="st1" d="M6.2 10c.4 1.2-.3 2.5-1.5 2.9h-.1c-1.3.3-2.6-.4-2.9-1.7-.3-1.2.4-2.4 1.6-2.8 1.2-.4 2.5.3 2.9 1.6zm-2.6-.6c-.7.2-1.2.9-1 1.7.2.7 1 1.1 1.7.9h.1c.7-.2 1.2-.9 1-1.7-.3-.8-1-1.2-1.8-.9.1-.1 0 0 0 0z" id="Path_139"/><path class="st1" d="M5.3 6.4l-4.5.9-.2-1L5 5.5l.3.9z" id="Path_140"/><path class="st1" d="M4.6.8L1.9 3.3 4.7 3l.1 1-4.5.4v-.9l2.6-2.3-2.8.1L0 .4 4.5 0l.1.8z" id="Path_141"/></g></g><g id="Group_72" transform="translate(25.203 25.203)"><g id="Group_71"><path class="st0" d="M33.4 66.8C15 66.8 0 51.9 0 33.4 0 15 15 0 33.4 0c18.5 0 33.4 15 33.4 33.4 0 18.5-14.9 33.4-33.4 33.4z" id="Path_142"/></g><path class="st0" d="M33.4 66.8C15 66.8 0 51.9 0 33.4 0 15 15 0 33.4 0c18.5 0 33.4 15 33.4 33.4 0 18.5-14.9 33.4-33.4 33.4z" id="Path_143"/></g><g id="Group_74" transform="translate(25.203 25.203)"><path class="st1" d="M33.4 67.3C14.7 67.3-.5 52.1-.5 33.4S14.7-.5 33.4-.5s33.9 15.2 33.9 33.9-15.2 33.9-33.9 33.9zm0-66.8C15.3.5.5 15.3.5 33.4s14.8 32.9 32.9 32.9c18.1 0 32.9-14.8 32.9-32.9C66.3 15.3 51.6.5 33.4.5z" id="Path_144"/></g><g id="Group_76" transform="translate(25.198 34.311)"><path class="st1" d="M42.9 49.1h-19c-13.5 0-24.4-11-24.4-24.4v-.8c0-13.5 11-24.4 24.4-24.4h19c13.5 0 24.4 11 24.4 24.4v.8c0 6.5-2.5 12.7-7.1 17.3-4.6 4.6-10.8 7.1-17.3 7.1zM23.9.5C11 .5.5 11 .5 23.9v.8C.5 37.6 11 48.1 23.9 48.1h19c6.3 0 12.1-2.4 16.6-6.9s6.9-10.3 6.9-16.6v-.8C66.3 11 55.8.5 42.9.5h-19z" id="Path_145"/></g><g id="Group_78" transform="translate(34.317 25.203)"><g id="Group_77"><path class="st1" d="M25.1 67.3h-1.5c-13.2 0-24-10.8-24-24V23.5c0-13.2 10.8-24 24-24h1.5c13.2 0 24 10.8 24 24v19.8c0 13.2-10.8 24-24 24zM23.5.5C10.8.5.5 10.8.5 23.5v19.8c0 12.7 10.3 23 23 23H25c12.7 0 23-10.3 23-23V23.5c0-12.7-10.3-23-23-23h-1.5z" id="Path_146"/></g><path class="st1" d="M25.1 67.3h-1.5c-13.2 0-24-10.8-24-24V23.5c0-13.2 10.8-24 24-24h1.5c13.2 0 24 10.8 24 24v19.8c0 13.2-10.8 24-24 24zM23.5.5C10.8.5.5 10.8.5 23.5v19.8c0 12.7 10.3 23 23 23H25c12.7 0 23-10.3 23-23V23.5c0-12.7-10.3-23-23-23h-1.5z" id="Path_147"/></g><path class="st1" d="M25.2 58.1H92v1H25.2z" id="Line_7"/><g id="Group_80" transform="translate(44.947 25.203)"><g id="Group_79"><path class="st1" d="M13.7 67.3c-3.8 0-7.3-1.5-10-4.1C1 60.5-.5 57-.5 53.2V13.7c0-3.8 1.5-7.3 4.1-10s6.2-4.1 10-4.2c7.8 0 14.2 6.4 14.2 14.2v39.5c0 7.8-6.3 14.1-14.1 14.1zm0-66.8c-3.5 0-6.8 1.4-9.3 3.9C1.9 6.9.5 10.2.5 13.7v39.5c0 3.5 1.4 6.8 3.9 9.3 2.5 2.5 5.8 3.9 9.3 3.9 7.3 0 13.2-5.9 13.2-13.2V13.7C26.8 6.4 20.9.5 13.7.5z" id="Path_148"/></g><path class="st1" d="M13.7 67.3c-3.8 0-7.3-1.5-10-4.1C1 60.5-.5 57-.5 53.2V13.7c0-3.8 1.5-7.3 4.1-10s6.2-4.1 10-4.2c7.8 0 14.2 6.4 14.2 14.2v39.5c0 7.8-6.3 14.1-14.1 14.1zm0-66.8c-3.5 0-6.8 1.4-9.3 3.9C1.9 6.9.5 10.2.5 13.7v39.5c0 3.5 1.4 6.8 3.9 9.3 2.5 2.5 5.8 3.9 9.3 3.9 7.3 0 13.2-5.9 13.2-13.2V13.7C26.8 6.4 20.9.5 13.7.5z" id="Path_149"/></g><path class="st1" d="M58.1 25.2h1V92h-1z" id="Line_8"/></g><g id="Group_119" transform="translate(532 2976)"><path class="st0" d="M22.8 50.2h27.4v12.2H22.8z" id="Rectangle_56"/><path class="st0" d="M100.4 15.2V0H30.7L0 31.4v90.4h15.2V140h103.5V15.2h-18.3zm-73 5.6v8.1h-7.9l7.9-8.1zm-15.2 88.8V41.1h27.4V12.2h48.7v97.4H12.2zm94.3 18.2H27.4v-6.1h73V27.4h6.1v100.4z" id="Path_192"/><path class="st0" d="M22.8 68.5h54.8v12.2H22.8z" id="Rectangle_57"/><path class="st0" d="M22.8 86.7h54.8v12.2H22.8z" id="Rectangle_58"/></g><g id="Group_121" transform="translate(-12 -157)"><g id="Rectangle_59"><path class="st1" d="M0 0h60v60H0z" transform="translate(763 3431)"/><path class="st0" d="M60 60H0V0h60v60zM2 58h56V2H2v56z" transform="translate(763 3431)"/></g><g id="Group_120" transform="translate(782 3437.785)"><path class="st0" d="M11.2 0l-.2.8v24l.2.2 11.2-6.6L11.2 0z" id="Path_193"/><path class="st0" d="M11.2 0L0 18.5l11.2 6.6V0z" id="Path_194"/><path class="st0" d="M11.2 27.2l-.2.2V36l.1.4 11.2-15.7-11.1 6.5z" id="Path_195"/><path class="st0" d="M11.2 36.4v-9.1L0 20.6l11.2 15.8z" id="Path_196"/><path class="st0" d="M11.2 25.1l11.2-6.6-11.2-5.1v11.7z" id="Path_197"/><path class="st0" d="M0 18.5l11.2 6.6V13.4L0 18.5z" id="Path_198"/></g><path class="st0" d="M772 3479h42v5h-42z" id="Rectangle_60"/></g><path class="st2" d="M655.5 3283.5h-101l5-5-4.3-4.3-12.2 12.3 12.5 12.6 4.3-4.3-5.3-5.3h101zM709.6 3195.4l4.1-.2-.2-3.7.1-.1-.1-.1-.7-13.8-6 .3.4 7.1-49.6-49.5-4.2 4.2 50.1 50.1-7.4.4.3 6 12.8-.6.2.1zM521.1 3134.5v6h7.2l-50.9 50.9 4.2 4.2 51.3-51.2v7.4h6v-17.3z"/></g></svg>